<svg width="101" height="108" xmlns="http://www.w3.org/2000/svg" xmlns:xlink="http://www.w3.org/1999/xlink" overflow="hidden"><defs><clipPath id="clip0"><rect x="466" y="360" width="101" height="108"/></clipPath><clipPath id="clip1"><rect x="466" y="361" width="100" height="106"/></clipPath><clipPath id="clip2"><rect x="466" y="361" width="100" height="106"/></clipPath><clipPath id="clip3"><rect x="466" y="361" width="100" height="125"/></clipPath></defs><g clip-path="url(#clip0)" transform="translate(-466 -360)"><g clip-path="url(#clip1)"><g clip-path="url(#clip2)"><g clip-path="url(#clip3)"><path d="M17.2442 87.7803C27.3554 96.4727 40.2474 100.706 53.5444 99.7024 66.8395 98.6967 78.9502 92.5755 87.6426 82.4633 96.335 72.351 100.568 59.4581 99.5638 46.162 98.559 32.866 92.4368 20.7563 82.3256 12.0648 72.2133 3.37041 59.3214-0.863056 46.0243 0.141681 32.7273 1.14542 20.6176 7.26863 11.9261 17.3799 3.23372 27.4921-0.999748 40.384 0.00299326 53.6811 1.00773 66.9781 7.12994 79.0879 17.2442 87.7803ZM77.681 79.1398C75.021 81.8566 72.365 83.7733 70.7297 84.8359 70.3236 84.9497 67.2346 85.703 60.7103 84.4598 56.1515 83.5907 53.3828 82.4273 52.0308 81.7389L48.7791 66.8494 63.6496 50.4923 78.4952 53.3069C79.3094 55.2146 80.7561 58.8046 81.5214 61.9285 82.3934 65.4855 82.9392 70.5052 83.1318 72.4807 82.1001 74.0163 80.2792 76.4867 77.681 79.1398ZM46.9622 65.3418C45.3429 65.1543 42.4474 64.7392 38.3526 63.8672 34.3606 63.0161 31.4781 62.0482 29.8168 61.4107 29.1803 60.0557 27.075 55.3962 25.7759 50.4154 24.6924 46.2588 24.0209 41.5863 23.7176 39.1548 24.8041 37.6253 26.7128 35.1349 29.3369 32.4539 32.1586 29.5724 34.3247 27.6936 35.4731 26.7458 35.0521 26.7298 34.2459 27.0511 34.6051 27.062 34.65 27.063 40.9398 27.3564 46.1401 28.5946 49.7659 29.4577 54.3217 31.0082 56.82 31.8962L61.8138 49.0046 46.9622 65.3418ZM57.8307 29.753C55.3493 28.865 50.5721 27.2267 46.6858 26.3028 41.2431 25.0087 36.6285 24.841 36.4339 24.8341 36.391 24.8331 35.9081 24.7782 35.8652 24.7822 35.7674 24.7892 35.981 24.866 36.0269 24.8929L32.6594 14.657C33.7161 13.2422 36.1077 10.3118 38.8695 8.7004 42.4344 6.62109 48.4279 4.97978 49.2152 4.77026 50.9822 4.85008 54.1919 5.12845 58.1989 6.06434 61.724 6.88948 64.2313 7.8134 65.7379 8.45895 66.3875 9.71711 68.0996 13.0925 69.1762 15.7336 69.9864 17.7171 70.5491 20.6824 70.8604 22.659L57.8307 29.753ZM37.6821 6.66299C34.6051 8.45795 32.0358 11.56 30.8375 13.1534 29.1903 13.1314 26.1631 13.3928 22.3926 15.074 21.0695 15.6647 19.9421 16.2594 18.9862 16.8271 24.5976 11.5849 31.3773 7.90519 38.7876 6.06334 38.4045 6.25791 38.0333 6.45845 37.6821 6.66299ZM6.68395 43.7285C7.75952 41.2661 9.87975 38.3736 11.2187 36.6644L21.4816 40.2893C21.8288 42.9123 22.4804 47.1279 23.4951 51.0131 24.7413 55.7883 26.65 60.1785 27.4821 61.9834L21.1983 73.9874C19.9181 73.7649 17.8348 73.278 14.5412 72.2273 11.3225 71.1996 9.9017 70.4663 9.29407 70.0722 6.72585 64.9098 5.15339 59.2476 4.7074 53.3259 4.61161 52.0607 4.5717 50.8006 4.58068 49.5474 5.20328 47.5868 5.95758 45.3908 6.68395 43.7285ZM5.46768 40.9069C6.62308 35.1808 8.88998 29.731 12.1806 24.8221 11.8284 25.6961 11.4841 26.6749 11.1888 27.7445 10.4794 30.3167 10.19 32.7273 10.0723 34.3177 9.08254 35.53 6.98227 38.2089 5.46768 40.9069ZM11.2397 73.5773C11.974 73.8567 12.8231 74.155 13.8239 74.4733 17.8598 75.7604 20.2823 76.2762 21.7271 76.4478 22.7657 77.9085 24.5228 80.2014 26.6839 82.3146 29.1833 84.7611 32.2693 86.576 33.8547 87.4251 33.7729 87.5847 33.726 87.7643 33.726 87.9559L33.7041 92.1934C28.876 90.3525 24.3521 87.6705 20.3172 84.2013 16.7074 81.1013 13.6632 77.5164 11.2397 73.5773ZM36.0578 93.0155 36.0847 87.9898C37.3529 87.9339 39.6916 87.6366 43.3264 86.4653 46.7786 85.3538 49.2501 84.355 50.7148 83.7144 52.1885 84.4967 55.2186 85.8137 60.2713 86.7775 63.474 87.3882 66.3126 87.6296 68.7023 87.4929 68.9258 87.48 69.1323 87.465 69.3279 87.447L69.7309 90.5121C64.6244 93.0215 59.034 94.558 53.1892 94.999 47.3074 95.444 41.5145 94.7536 36.0578 93.0155ZM89.8317 70.9233C89.5842 70.9372 89.3408 70.9482 89.1113 70.9572 87.6246 71.0081 86.2637 70.9781 85.3458 70.9402 85.0804 68.4907 84.5715 64.4648 83.8112 61.3648 82.9941 58.0263 81.4885 54.2997 80.6464 52.3351 81.4106 51.0071 82.6199 48.7063 83.6177 45.9206 84.7192 42.8495 85.4196 39.5978 85.7479 37.8837L93.2819 37.5644C94.0971 40.4559 94.6309 43.4511 94.8623 46.5152 95.5099 55.0989 93.7468 63.492 89.8317 70.9233ZM92.5545 35.2356 85.2949 35.5449C84.3081 33.9675 82.2847 30.9722 79.5788 28.2105 77.0485 25.6273 74.6489 23.7824 73.273 22.8046 72.9657 20.7513 72.3391 17.2392 71.3623 14.8416 70.5641 12.886 69.4615 10.6011 68.6474 8.97578 68.7232 8.96082 68.812 8.94685 68.8928 8.93188 72.5895 10.662 76.0727 12.9079 79.2525 15.6398 85.4455 20.9638 89.9833 27.7046 92.5545 35.2356Z" fill="#1b657c" transform="matrix(1.00225 0 0 1 466 361)"/><text fill="#1b657c" font-family="Arial,Arial_MSFontService,sans-serif" font-weight="700" font-size="5" transform="matrix(1 0 0 0.997753 466 476)">Created by Mark Wehrhahn<tspan font-size="5" x="0" y="5.01126">from the Noun Project</tspan></text></g></g></g></g></svg>