<svg width="101" height="100" xmlns="http://www.w3.org/2000/svg" xmlns:xlink="http://www.w3.org/1999/xlink" overflow="hidden"><defs><clipPath id="clip0"><rect x="466" y="154" width="101" height="100"/></clipPath><clipPath id="clip1"><rect x="466" y="155" width="100" height="98"/></clipPath><clipPath id="clip2"><rect x="466" y="155" width="100" height="98"/></clipPath><clipPath id="clip3"><rect x="466" y="155" width="100" height="125"/></clipPath></defs><g clip-path="url(#clip0)" transform="translate(-466 -154)"><g clip-path="url(#clip1)"><g clip-path="url(#clip2)"><g clip-path="url(#clip3)"><path d="M5264.3 2396.1 5264.3 2394.1C5264.3 2391.3 5259.31 2390.11 5254.62 2390.11 5249.93 2390.11 5244.94 2391.4 5244.94 2394.1L5244.94 2396.1C5244.94 2397.89 5245.63 2399.69 5246.93 2400.99L5251.92 2405.88C5252.22 2406.18 5252.32 2406.48 5252.32 2406.88L5252.32 2413.27C5252.32 2413.67 5252.52 2413.97 5252.92 2414.07L5255.82 2414.96C5256.32 2415.06 5256.82 2414.77 5256.82 2414.17L5256.82 2406.98C5256.82 2406.58 5257.02 2406.28 5257.22 2405.98L5262.31 2400.99C5263.6 2399.69 5264.3 2397.89 5264.3 2396.1ZM5254.62 2396C5249.83 2396 5247.23 2394.7 5247.13 2394.2L5247.13 2394.2C5247.23 2393.7 5249.83 2392.4 5254.62 2392.4 5259.41 2392.4 5261.91 2393.7 5262.11 2394.2 5261.91 2394.7 5259.41 2396 5254.62 2396Z" fill="#1b657c" transform="matrix(1.00167 0 0 1 466 155)"/><path d="M5259.61 2406.28C5259.01 2406.28 5258.61 2406.68 5258.61 2407.28 5258.61 2407.88 5259.01 2408.28 5259.61 2408.28L5263.9 2408.28C5264.5 2408.28 5264.9 2407.88 5264.9 2407.28 5264.9 2406.68 5264.5 2406.28 5263.9 2406.28L5259.61 2406.28Z" fill="#1b657c" transform="matrix(1.00167 0 0 1 466 155)"/><path d="M5263.9 2409.67 5259.61 2409.67C5259.01 2409.67 5258.61 2410.07 5258.61 2410.67 5258.61 2411.27 5259.01 2411.67 5259.61 2411.67L5263.9 2411.67C5264.5 2411.67 5264.9 2411.27 5264.9 2410.67 5264.9 2410.07 5264.5 2409.67 5263.9 2409.67Z" fill="#1b657c" transform="matrix(1.00167 0 0 1 466 155)"/><path d="M5263.9 2412.97 5259.61 2412.97C5259.01 2412.97 5258.61 2413.37 5258.61 2413.97 5258.61 2414.57 5259.01 2414.96 5259.61 2414.96L5263.9 2414.96C5264.5 2414.96 5264.9 2414.57 5264.9 2413.97 5264.9 2413.47 5264.5 2412.97 5263.9 2412.97Z" fill="#1b657c" transform="matrix(1.00167 0 0 1 466 155)"/><path d="M36.0398 43.3276C36.0398 52.0131 44.2261 64.1927 48.0198 69.3841 48.9183 70.6819 50.8151 70.6819 51.8134 69.3841 55.6071 64.1927 63.7934 51.9133 63.7934 43.3276 63.7934 35.6404 57.6037 29.4508 49.9166 29.4508 42.2294 29.4508 36.0398 35.6404 36.0398 43.3276ZM56.7052 43.2278C56.7052 46.9216 53.7103 49.9166 50.0164 49.9166 46.3226 49.9166 43.3276 46.9216 43.3276 43.2278 43.3276 39.5339 46.3226 36.5389 50.0164 36.5389 53.7103 36.5389 56.7052 39.5339 56.7052 43.2278Z" fill="#1b657c" transform="matrix(1.00167 0 0 1 466 155)"/><path d="M24.7586 48.0198 19.3676 48.0198C20.366 32.0465 33.5439 19.3676 49.8168 19.3676 57.0047 19.3676 63.8932 21.8635 69.3841 26.4558 70.0829 27.0548 71.0812 26.955 71.6802 26.356L75.8732 21.8635C76.4722 21.1646 76.4722 20.0665 75.7734 19.4675 68.5854 13.2778 59.4007 9.98332 49.8168 9.98332 28.3526 9.88348 10.9817 26.7553 9.98332 48.0198L5.29116 48.0198C3.09483 48.0198 1.797 50.4158 2.89516 52.3126L12.579 68.2859C13.6771 70.0829 16.2728 70.0829 17.371 68.2859L27.0548 52.3126C28.2528 50.3159 26.955 48.0198 24.7586 48.0198Z" fill="#1b657c" transform="matrix(1.00167 0 0 1 466 155)"/><path d="M96.938 47.6204 87.2542 31.6471C86.156 29.8501 83.5604 29.8501 82.4622 31.6471L72.7784 47.6204C71.6802 49.5173 72.9781 51.9133 75.1744 51.9133L80.5654 51.9133C79.567 67.8866 66.3891 80.5654 50.1163 80.5654 42.9283 80.5654 36.0398 78.0695 30.549 73.4772 29.8501 72.8782 28.8518 72.9781 28.2528 73.5771L23.96 78.0695C23.361 78.7684 23.361 79.8665 24.0598 80.4655 31.2478 86.6552 40.4324 89.9497 50.0164 89.9497 71.4806 89.9497 88.8515 72.9781 89.8499 51.8134L94.542 51.8134C96.7384 51.8134 98.0362 49.5173 96.938 47.6204Z" fill="#1b657c" transform="matrix(1.00167 0 0 1 466 155)"/><text fill="#1b657c" font-family="Arial,Arial_MSFontService,sans-serif" font-weight="700" font-size="5" transform="matrix(1 0 0 0.998332 466 270)">Created by Adrien Coquet<tspan font-size="5" x="0" y="5.00835">from the Noun Project</tspan></text></g></g></g></g></svg>