<svg width="28" height="28" viewBox="0 0 28 28" fill="none" xmlns="http://www.w3.org/2000/svg">
<mask id="path-1-outside-1_83_1185" maskUnits="userSpaceOnUse" x="0.999344" y="2" width="26" height="24" fill="black">
<rect fill="white" x="0.999344" y="2" width="26" height="24"/>
<path fill-rule="evenodd" clip-rule="evenodd" d="M23.6642 8.34446C23.8078 8.4527 23.9077 8.61572 23.9328 8.80624L25.0007 16.7498H20.2291L20.2271 16.737C20.1307 16.2345 19.8487 15.7983 19.4498 15.4984L12.7808 10.319L12.7856 10.3225C12.425 10.0415 11.9714 9.87434 11.479 9.87434C10.9867 9.87434 10.533 10.0418 10.1773 10.319L8.75652 11.419L9.1094 8.80624L9.10984 8.80272C9.13448 8.61594 9.23436 8.4527 9.37978 8.34336L16.0627 3.15466L16.061 3.15598C16.1886 3.05808 16.3481 3 16.5212 3C16.6943 3 16.8538 3.05808 16.9795 3.15466L23.6624 8.34314L23.6642 8.34446ZM16.292 14.7876L18.6204 16.5936H18.6202L18.622 16.5949C18.7656 16.7031 18.8655 16.8662 18.8906 17.0567L19.9587 25H14L11.5065 20.4852L11.5061 20.4845C11.4821 20.444 11.4379 20.4167 11.3873 20.4165H11.3835C11.3101 20.4165 11.2502 20.4759 11.2498 20.5494V25H2.99934L4.06744 17.0567L4.06788 17.0532C4.09252 16.8664 4.1924 16.7031 4.33782 16.5938L11.0208 11.4053L11.0192 11.4064C11.1435 11.3081 11.3006 11.2493 11.4715 11.2493H11.4788H11.479H11.4834C11.6552 11.2493 11.8136 11.3079 11.9375 11.4051L15.3752 14.0726L15.8702 14.4576L16.292 14.7876Z"/>
</mask>
<path fill-rule="evenodd" clip-rule="evenodd" d="M23.6642 8.34446C23.8078 8.4527 23.9077 8.61572 23.9328 8.80624L25.0007 16.7498H20.2291L20.2271 16.737C20.1307 16.2345 19.8487 15.7983 19.4498 15.4984L12.7808 10.319L12.7856 10.3225C12.425 10.0415 11.9714 9.87434 11.479 9.87434C10.9867 9.87434 10.533 10.0418 10.1773 10.319L8.75652 11.419L9.1094 8.80624L9.10984 8.80272C9.13448 8.61594 9.23436 8.4527 9.37978 8.34336L16.0627 3.15466L16.061 3.15598C16.1886 3.05808 16.3481 3 16.5212 3C16.6943 3 16.8538 3.05808 16.9795 3.15466L23.6624 8.34314L23.6642 8.34446ZM16.292 14.7876L18.6204 16.5936H18.6202L18.622 16.5949C18.7656 16.7031 18.8655 16.8662 18.8906 17.0567L19.9587 25H14L11.5065 20.4852L11.5061 20.4845C11.4821 20.444 11.4379 20.4167 11.3873 20.4165H11.3835C11.3101 20.4165 11.2502 20.4759 11.2498 20.5494V25H2.99934L4.06744 17.0567L4.06788 17.0532C4.09252 16.8664 4.1924 16.7031 4.33782 16.5938L11.0208 11.4053L11.0192 11.4064C11.1435 11.3081 11.3006 11.2493 11.4715 11.2493H11.4788H11.479H11.4834C11.6552 11.2493 11.8136 11.3079 11.9375 11.4051L15.3752 14.0726L15.8702 14.4576L16.292 14.7876Z" fill="#EC6B4D"/>
<path d="M23.9328 8.80624L22.9413 8.93675L22.9417 8.93948L23.9328 8.80624ZM23.6642 8.34446L24.2659 7.54578L24.2639 7.54425L23.6642 8.34446ZM25.0007 16.7498V17.7498H26.1441L25.9917 16.6165L25.0007 16.7498ZM20.2291 16.7498L19.2409 16.9031L19.3723 17.7498H20.2291V16.7498ZM20.2271 16.737L21.2153 16.5837L21.2126 16.5661L21.2092 16.5487L20.2271 16.737ZM19.4498 15.4984L18.8365 16.2882L18.8427 16.293L18.8489 16.2977L19.4498 15.4984ZM12.7808 10.319L13.3689 9.51023L12.1674 11.1087L12.7808 10.319ZM12.7856 10.3225L12.1974 11.1312L13.4002 9.53365L12.7856 10.3225ZM10.1773 10.319L10.7895 11.1097L10.7919 11.1078L10.1773 10.319ZM8.75652 11.419L7.76552 11.2851L7.43884 13.7038L9.36872 12.2097L8.75652 11.419ZM9.1094 8.80624L10.1005 8.94009L10.1017 8.93029L9.1094 8.80624ZM9.10984 8.80272L8.11841 8.67193L8.11757 8.67867L9.10984 8.80272ZM9.37978 8.34336L9.98075 9.14264L9.98694 9.13798L9.99305 9.13324L9.37978 8.34336ZM16.0627 3.15466L16.676 3.94454L15.4626 2.35473L16.0627 3.15466ZM16.061 3.15598L15.4522 2.36259L16.6611 3.95591L16.061 3.15598ZM16.9795 3.15466L17.5927 2.36476L17.589 2.36188L16.9795 3.15466ZM23.6624 8.34314L23.0492 9.13303L23.0559 9.13825L23.0627 9.14335L23.6624 8.34314ZM18.6204 16.5936V17.5936H21.5414L19.2333 15.8034L18.6204 16.5936ZM16.292 14.7876L15.6757 15.5752L15.6791 15.5778L16.292 14.7876ZM18.6202 16.5936V15.5936H15.6181L18.0206 17.3938L18.6202 16.5936ZM18.622 16.5949L19.2237 15.7962L19.2216 15.7946L18.622 16.5949ZM18.8906 17.0567L17.8992 17.1872L17.8995 17.1899L18.8906 17.0567ZM19.9587 25V26H21.1022L20.9498 24.8667L19.9587 25ZM14 25L13.1246 25.4835L13.4099 26H14V25ZM11.5065 20.4852L12.3819 20.0017L12.3618 19.9653L12.3388 19.9307L11.5065 20.4852ZM11.5061 20.4845L10.6457 20.9942L10.6592 21.0169L10.6738 21.0389L11.5061 20.4845ZM11.3873 20.4165L11.3916 19.4165H11.3873V20.4165ZM11.2498 20.5494L10.2498 20.5434V20.5494H11.2498ZM11.2498 25V26H12.2498V25H11.2498ZM2.99934 25L2.00826 24.8667L1.85588 26H2.99934V25ZM4.06744 17.0567L5.05857 17.19L5.05973 17.1807L4.06744 17.0567ZM4.06788 17.0532L3.07645 16.9224L3.0756 16.9292L4.06788 17.0532ZM4.33782 16.5938L4.93879 17.3931L4.94497 17.3884L4.95107 17.3837L4.33782 16.5938ZM11.0208 11.4053L11.634 12.1952L10.4397 10.5915L11.0208 11.4053ZM11.0192 11.4064L10.3988 10.6222L11.6003 12.2203L11.0192 11.4064ZM11.9375 11.4051L11.32 12.1917L11.3245 12.1952L11.9375 11.4051ZM15.3752 14.0726L15.9892 13.2833L15.9883 13.2826L15.3752 14.0726ZM15.8702 14.4576L16.4865 13.67L16.4842 13.6683L15.8702 14.4576ZM24.9242 8.67573C24.8632 8.21227 24.6182 7.81118 24.2659 7.54578L23.0624 9.14314C22.9975 9.09422 22.9522 9.01917 22.9413 8.93675L24.9242 8.67573ZM25.9917 16.6165L24.9239 8.67301L22.9417 8.93948L24.0096 16.883L25.9917 16.6165ZM20.2291 17.7498H25.0007V15.7498H20.2291V17.7498ZM19.2389 16.8904L19.2409 16.9031L21.2173 16.5964L21.2153 16.5837L19.2389 16.8904ZM18.8489 16.2977C19.0563 16.4537 19.1971 16.6754 19.245 16.9254L21.2092 16.5487C21.0644 15.7937 20.6411 15.1429 20.0508 14.6991L18.8489 16.2977ZM12.1674 11.1087L18.8365 16.2882L20.0632 14.7086L13.3941 9.52917L12.1674 11.1087ZM13.3738 9.51375L13.3689 9.51023L12.1926 11.1277L12.1974 11.1312L13.3738 9.51375ZM11.479 10.8743C11.7412 10.8743 11.9801 10.9625 12.171 11.1113L13.4002 9.53365C12.87 9.12053 12.2015 8.87434 11.479 8.87434V10.8743ZM10.7919 11.1078C10.9771 10.9635 11.2157 10.8743 11.479 10.8743V8.87434C10.7577 8.87434 10.089 9.12003 9.56263 9.53016L10.7919 11.1078ZM9.36872 12.2097L10.7895 11.1097L9.56509 9.52825L8.14433 10.6283L9.36872 12.2097ZM8.1184 8.67239L7.76552 11.2851L9.74753 11.5528L10.1004 8.94009L8.1184 8.67239ZM8.11757 8.67867L8.11713 8.68219L10.1017 8.93029L10.1021 8.92677L8.11757 8.67867ZM8.77882 7.54409C8.42736 7.80834 8.17957 8.20847 8.11843 8.67193L10.1013 8.93351C10.0894 9.02341 10.0414 9.09706 9.98075 9.14264L8.77882 7.54409ZM15.4495 2.36478L8.76652 7.55348L9.99305 9.13324L16.676 3.94454L15.4495 2.36478ZM16.6611 3.95591L16.6628 3.95459L15.4626 2.35473L15.4609 2.35605L16.6611 3.95591ZM16.5212 2C16.1205 2 15.7485 2.13533 15.4522 2.36259L16.6697 3.94937C16.6287 3.98083 16.5757 4 16.5212 4V2ZM17.589 2.36188C17.293 2.13433 16.9203 2 16.5212 2V4C16.4684 4 16.4147 3.98183 16.37 3.94744L17.589 2.36188ZM24.2757 7.55325L17.5927 2.36477L16.3662 3.94455L23.0492 9.13303L24.2757 7.55325ZM24.2639 7.54425L24.2621 7.54293L23.0627 9.14335L23.0644 9.14467L24.2639 7.54425ZM19.2333 15.8034L16.9048 13.9974L15.6791 15.5778L18.0076 17.3838L19.2333 15.8034ZM18.6202 17.5936H18.6204V15.5936H18.6202V17.5936ZM19.2216 15.7946L19.2199 15.7933L18.0206 17.3938L18.0223 17.3952L19.2216 15.7946ZM19.8821 16.9262C19.821 16.4627 19.576 16.0616 19.2237 15.7962L18.0202 17.3936C17.9553 17.3447 17.91 17.2696 17.8992 17.1872L19.8821 16.9262ZM20.9498 24.8667L19.8817 16.9234L17.8995 17.1899L18.9676 25.1333L20.9498 24.8667ZM14 26H19.9587V24H14V26ZM10.6312 20.9686L13.1246 25.4835L14.8754 24.5165L12.3819 20.0017L10.6312 20.9686ZM10.6738 21.0389L10.6743 21.0396L12.3388 19.9307L12.3383 19.9301L10.6738 21.0389ZM11.3829 21.4165C11.0686 21.4152 10.7942 21.2448 10.6457 20.9942L12.3664 19.9748C12.17 19.6433 11.8071 19.4183 11.3916 19.4165L11.3829 21.4165ZM11.3835 21.4165H11.3873V19.4165H11.3835V21.4165ZM12.2498 20.5554C12.2469 21.0327 11.8592 21.4165 11.3835 21.4165V19.4165C10.7609 19.4165 10.2535 19.9192 10.2498 20.5434L12.2498 20.5554ZM12.2498 25V20.5494H10.2498V25H12.2498ZM2.99934 26H11.2498V24H2.99934V26ZM3.07636 16.9234L2.00826 24.8667L3.99042 25.1333L5.05852 17.1899L3.07636 16.9234ZM3.0756 16.9292L3.07516 16.9327L5.05973 17.1807L5.06017 17.1772L3.0756 16.9292ZM3.73686 15.7945C3.38541 16.0588 3.13761 16.4589 3.07647 16.9224L5.05929 17.1839C5.04743 17.2739 4.9994 17.3475 4.93879 17.3931L3.73686 15.7945ZM10.4075 10.6154L3.72457 15.8039L4.95107 17.3837L11.634 12.1952L10.4075 10.6154ZM11.6003 12.2203L11.6018 12.2192L10.4397 10.5915L10.4382 10.5926L11.6003 12.2203ZM11.4715 10.2493C11.0674 10.2493 10.6933 10.3891 10.3988 10.6222L11.6397 12.1907C11.5937 12.227 11.5338 12.2493 11.4715 12.2493V10.2493ZM11.4788 10.2493H11.4715V12.2493H11.4788V10.2493ZM11.479 10.2493H11.4788V12.2493H11.479V10.2493ZM11.4834 10.2493H11.479V12.2493H11.4834V10.2493ZM12.555 10.6185C12.2592 10.3863 11.8844 10.2493 11.4834 10.2493V12.2493C11.426 12.2493 11.3681 12.2294 11.32 12.1917L12.555 10.6185ZM15.9883 13.2826L12.5505 10.6151L11.3245 12.1952L14.7622 14.8627L15.9883 13.2826ZM16.4842 13.6683L15.9892 13.2833L14.7613 14.862L15.2563 15.247L16.4842 13.6683ZM16.9082 14L16.4865 13.67L15.254 15.2452L15.6757 15.5752L16.9082 14Z" fill="white" mask="url(#path-1-outside-1_83_1185)"/>
</svg>
