<svg width="28" height="28" viewBox="0 0 28 28" fill="none" xmlns="http://www.w3.org/2000/svg">
<g clip-path="url(#clip0_83_1254)">
<mask id="path-1-outside-1_83_1254" maskUnits="userSpaceOnUse" x="-0.000656128" y="1" width="28" height="26" fill="black">
<rect fill="white" x="-0.000656128" y="1" width="28" height="26"/>
<path fill-rule="evenodd" clip-rule="evenodd" d="M23.6642 8.34446C23.8078 8.4527 23.9077 8.61572 23.9328 8.80624L25.0007 16.7498H20.2291L20.2271 16.737C20.1307 16.2345 19.8487 15.7983 19.4498 15.4984L12.7808 10.319L12.7856 10.3225C12.425 10.0415 11.9714 9.87434 11.479 9.87434C10.9867 9.87434 10.533 10.0418 10.1773 10.319L8.75652 11.419L9.1094 8.80624L9.10984 8.80272C9.13448 8.61594 9.23436 8.4527 9.37978 8.34336L16.0627 3.15466L16.061 3.15598C16.1886 3.05808 16.3481 3 16.5212 3C16.6943 3 16.8538 3.05808 16.9795 3.15466L23.6624 8.34314L23.6642 8.34446ZM16.292 14.7876L18.6204 16.5936H18.6202L18.622 16.5949C18.7656 16.7031 18.8655 16.8662 18.8906 17.0567L19.9587 25H14L11.5065 20.4852L11.5061 20.4845C11.4821 20.444 11.4379 20.4167 11.3873 20.4165H11.3835C11.3101 20.4165 11.2502 20.4759 11.2498 20.5494V25H2.99934L4.06744 17.0567L4.06788 17.0532C4.09252 16.8664 4.1924 16.7031 4.33782 16.5938L11.0208 11.4053L11.0192 11.4064C11.1435 11.3081 11.3006 11.2493 11.4715 11.2493H11.4788H11.479H11.4834C11.6552 11.2493 11.8136 11.3079 11.9375 11.4051L15.3752 14.0726L15.8702 14.4576L16.292 14.7876Z"/>
</mask>
<path fill-rule="evenodd" clip-rule="evenodd" d="M23.6642 8.34446C23.8078 8.4527 23.9077 8.61572 23.9328 8.80624L25.0007 16.7498H20.2291L20.2271 16.737C20.1307 16.2345 19.8487 15.7983 19.4498 15.4984L12.7808 10.319L12.7856 10.3225C12.425 10.0415 11.9714 9.87434 11.479 9.87434C10.9867 9.87434 10.533 10.0418 10.1773 10.319L8.75652 11.419L9.1094 8.80624L9.10984 8.80272C9.13448 8.61594 9.23436 8.4527 9.37978 8.34336L16.0627 3.15466L16.061 3.15598C16.1886 3.05808 16.3481 3 16.5212 3C16.6943 3 16.8538 3.05808 16.9795 3.15466L23.6624 8.34314L23.6642 8.34446ZM16.292 14.7876L18.6204 16.5936H18.6202L18.622 16.5949C18.7656 16.7031 18.8655 16.8662 18.8906 17.0567L19.9587 25H14L11.5065 20.4852L11.5061 20.4845C11.4821 20.444 11.4379 20.4167 11.3873 20.4165H11.3835C11.3101 20.4165 11.2502 20.4759 11.2498 20.5494V25H2.99934L4.06744 17.0567L4.06788 17.0532C4.09252 16.8664 4.1924 16.7031 4.33782 16.5938L11.0208 11.4053L11.0192 11.4064C11.1435 11.3081 11.3006 11.2493 11.4715 11.2493H11.4788H11.479H11.4834C11.6552 11.2493 11.8136 11.3079 11.9375 11.4051L15.3752 14.0726L15.8702 14.4576L16.292 14.7876Z" fill="#EC6B4D"/>
<path d="M23.9328 8.80624L21.9499 9.06729L21.9506 9.07271L23.9328 8.80624ZM23.6642 8.34446L24.8677 6.74711L24.8628 6.74342L23.6642 8.34446ZM25.0007 16.7498V18.7498H27.2875L26.9828 16.4833L25.0007 16.7498ZM20.2291 16.7498L18.2527 17.0564L18.5155 18.7498H20.2291V16.7498ZM20.2271 16.737L22.2035 16.4304L22.198 16.3952L22.1913 16.3604L20.2271 16.737ZM19.4498 15.4984L18.2231 17.078L18.2355 17.0876L18.248 17.097L19.4498 15.4984ZM12.7808 10.319L13.9573 8.70161L11.554 11.8985L12.7808 10.319ZM12.7856 10.3225L11.6091 11.9398L14.0148 8.74481L12.7856 10.3225ZM10.1773 10.319L11.4017 11.9004L11.4066 11.8966L10.1773 10.319ZM8.75652 11.419L6.77452 11.1513L6.12116 15.9887L9.98091 13.0004L8.75652 11.419ZM9.1094 8.80624L11.0914 9.07393L11.0927 9.06415L11.094 9.05434L9.1094 8.80624ZM9.10984 8.80272L7.12698 8.54114L7.12529 8.55462L9.10984 8.80272ZM9.37978 8.34336L10.5817 9.94191L10.5941 9.93261L10.6063 9.92311L9.37978 8.34336ZM16.0627 3.15466L17.2893 4.73441L14.8625 1.55481L16.0627 3.15466ZM16.061 3.15598L14.8435 1.56921L17.2612 4.75583L16.061 3.15598ZM16.9795 3.15466L18.206 1.57487L18.1985 1.5691L16.9795 3.15466ZM23.6624 8.34314L22.4359 9.92292L22.4498 9.93367L22.4638 9.94418L23.6624 8.34314ZM18.6204 16.5936V18.5936H24.4624L19.8462 15.0132L18.6204 16.5936ZM16.292 14.7876L15.0595 16.3627L15.0662 16.368L16.292 14.7876ZM18.6202 16.5936V14.5936H12.6089L17.422 18.1949L18.6202 16.5936ZM18.622 16.5949L19.8255 14.9975L19.8202 14.9936L18.622 16.5949ZM18.8906 17.0567L16.9077 17.3177L16.9084 17.3232L18.8906 17.0567ZM19.9587 25V27H22.2456L21.9409 24.7335L19.9587 25ZM14 25L12.2493 25.9669L12.8198 27H14V25ZM11.5065 20.4852L13.2573 19.5183L13.2164 19.4443L13.1695 19.3741L11.5065 20.4852ZM11.5061 20.4845L9.78536 21.5039L9.81298 21.5505L9.8431 21.5956L11.5061 20.4845ZM11.3873 20.4165L11.396 18.4165H11.3873V20.4165ZM11.2498 20.5494L9.24978 20.5374V20.5494H11.2498ZM11.2498 25V27H13.2498V25H11.2498ZM2.99934 25L1.01718 24.7335L0.712414 27H2.99934V25ZM4.06744 17.0567L6.0496 17.3232L6.05085 17.314L6.05201 17.3047L4.06744 17.0567ZM4.06788 17.0532L2.08502 16.7916L2.08332 16.8052L4.06788 17.0532ZM4.33782 16.5938L5.53976 18.1924L5.55211 18.1831L5.56433 18.1736L4.33782 16.5938ZM11.0208 11.4053L12.2473 12.9851L9.85867 9.77758L11.0208 11.4053ZM11.0192 11.4064L9.77832 9.83794L12.1813 13.0342L11.0192 11.4064ZM11.9375 11.4051L10.7025 12.9783L10.7114 12.9852L11.9375 11.4051ZM15.3752 14.0726L16.6031 12.4939L16.6013 12.4925L15.3752 14.0726ZM15.8702 14.4576L17.1027 12.8825L17.0981 12.8789L15.8702 14.4576ZM25.9157 8.5452C25.8187 7.80881 25.4285 7.16967 24.8677 6.74712L22.4606 9.9418C22.1871 9.73573 21.9967 9.42263 21.9499 9.06728L25.9157 8.5452ZM26.9828 16.4833L25.915 8.53977L21.9506 9.07271L23.0185 17.0163L26.9828 16.4833ZM20.2291 18.7498H25.0007V14.7498H20.2291V18.7498ZM18.2508 17.0437L18.2527 17.0564L22.2054 16.4431L22.2035 16.4304L18.2508 17.0437ZM18.248 17.097C18.2562 17.1032 18.2601 17.1084 18.2616 17.1108C18.2623 17.112 18.2626 17.1126 18.2626 17.1127C18.2626 17.1127 18.2627 17.1129 18.2629 17.1137L22.1913 16.3604C21.9981 15.3529 21.4334 14.4875 20.6517 13.8998L18.248 17.097ZM11.554 11.8985L18.2231 17.078L20.6766 13.9188L14.0075 8.73938L11.554 11.8985ZM13.9621 8.70513L13.9573 8.70161L11.6042 11.9363L11.6091 11.9398L13.9621 8.70513ZM11.479 11.8743C11.4974 11.8743 11.511 11.8773 11.5217 11.881C11.5332 11.885 11.545 11.8913 11.5564 11.9001L14.0148 8.74481C13.315 8.19953 12.4317 7.87434 11.479 7.87434V11.8743ZM11.4066 11.8966C11.4211 11.8852 11.4447 11.8743 11.479 11.8743V7.87434C10.5286 7.87434 9.64492 8.19829 8.94799 8.74136L11.4066 11.8966ZM9.98091 13.0004L11.4017 11.9004L8.9529 8.73754L7.53214 9.83754L9.98091 13.0004ZM7.1274 8.53855L6.77452 11.1513L10.7385 11.6867L11.0914 9.07393L7.1274 8.53855ZM7.12529 8.55462L7.12485 8.55814L11.094 9.05434L11.0944 9.05082L7.12529 8.55462ZM8.17785 6.74481C7.62037 7.16398 7.22466 7.80101 7.12702 8.54115L11.0927 9.06429C11.0443 9.43087 10.8484 9.74142 10.5817 9.94191L8.17785 6.74481ZM14.8362 1.57491L8.15325 6.76361L10.6063 9.92311L17.2893 4.73441L14.8362 1.57491ZM17.2612 4.75583L17.2629 4.75451L14.8625 1.55481L14.8608 1.55613L17.2612 4.75583ZM16.5212 1C15.8929 1 15.3084 1.21257 14.8435 1.56921L17.2784 4.74275C17.0688 4.90359 16.8032 5 16.5212 5V1ZM18.1985 1.5691C17.7321 1.21057 17.1463 1 16.5212 1V5C16.2424 5 15.9755 4.90559 15.7604 4.74022L18.1985 1.5691ZM24.8889 6.76336L18.206 1.57488L15.753 4.73444L22.4359 9.92292L24.8889 6.76336ZM24.8628 6.74342L24.861 6.7421L22.4638 9.94418L22.4656 9.9455L24.8628 6.74342ZM19.8462 15.0132L17.5177 13.2072L15.0662 16.368L17.3947 18.174L19.8462 15.0132ZM18.6202 18.5936H18.6204V14.5936H18.6202V18.5936ZM19.8202 14.9936L19.8184 14.9922L17.422 18.1949L17.4238 18.1963L19.8202 14.9936ZM20.8735 16.7957C20.7766 16.0593 20.3863 15.4201 19.8255 14.9976L17.4185 18.1923C17.145 17.9862 16.9545 17.6731 16.9077 17.3177L20.8735 16.7957ZM21.9409 24.7335L20.8728 16.7902L16.9084 17.3232L17.9765 25.2665L21.9409 24.7335ZM14 27H19.9587V23H14V27ZM9.75578 21.4521L12.2493 25.9669L15.7507 24.0331L13.2573 19.5183L9.75578 21.4521ZM9.8431 21.5956L9.84354 21.5962L13.1695 19.3741L13.1691 19.3734L9.8431 21.5956ZM11.3785 22.4165C10.6994 22.4135 10.1063 22.0456 9.78536 21.5039L13.2268 19.4651C12.8579 18.8425 12.1763 18.42 11.396 18.4165L11.3785 22.4165ZM11.3835 22.4165H11.3873V18.4165H11.3835V22.4165ZM13.2497 20.5614C13.2436 21.5894 12.4083 22.4165 11.3835 22.4165V18.4165C10.2118 18.4165 9.25685 19.3624 9.24982 20.5374L13.2497 20.5614ZM13.2498 25V20.5494H9.24978V25H13.2498ZM2.99934 27H11.2498V23H2.99934V27ZM2.08528 16.7902L1.01718 24.7335L4.9815 25.2665L6.0496 17.3232L2.08528 16.7902ZM2.08332 16.8052L2.08288 16.8087L6.05201 17.3047L6.05245 17.3012L2.08332 16.8052ZM3.13589 14.9953C2.57841 15.4144 2.1827 16.0514 2.08506 16.7916L6.0507 17.3147C6.00235 17.6813 5.8064 17.9919 5.53976 18.1924L3.13589 14.9953ZM9.79426 9.82555L3.11132 15.014L5.56433 18.1736L12.2473 12.9851L9.79426 9.82555ZM12.1813 13.0342L12.1829 13.0331L9.85867 9.77758L9.85713 9.77868L12.1813 13.0342ZM11.4715 9.24934C10.8342 9.24934 10.2431 9.47021 9.77832 9.83794L12.2601 12.9749C12.0439 13.146 11.767 13.2493 11.4715 13.2493V9.24934ZM11.4788 9.24934H11.4715V13.2493H11.4788V9.24934ZM11.479 9.24934H11.4788V13.2493H11.479V9.24934ZM11.4834 9.24934H11.479V13.2493H11.4834V9.24934ZM13.1725 9.83198C12.7048 9.46477 12.1136 9.24934 11.4834 9.24934V13.2493C11.1968 13.2493 10.9225 13.151 10.7025 12.9782L13.1725 9.83198ZM16.6013 12.4925L13.1636 9.825L10.7114 12.9852L14.1491 15.6527L16.6013 12.4925ZM17.0981 12.8789L16.6031 12.4939L14.1473 15.6513L14.6423 16.0363L17.0981 12.8789ZM17.5244 13.2125L17.1027 12.8825L14.6377 16.0327L15.0595 16.3627L17.5244 13.2125Z" fill="#2C2C2C" mask="url(#path-1-outside-1_83_1254)"/>
<mask id="path-3-outside-2_83_1254" maskUnits="userSpaceOnUse" x="0.999344" y="2" width="26" height="24" fill="black">
<rect fill="white" x="0.999344" y="2" width="26" height="24"/>
<path fill-rule="evenodd" clip-rule="evenodd" d="M23.6642 8.34446C23.8078 8.4527 23.9077 8.61572 23.9328 8.80624L25.0007 16.7498H20.2291L20.2271 16.737C20.1307 16.2345 19.8487 15.7983 19.4498 15.4984L12.7808 10.319L12.7856 10.3225C12.425 10.0415 11.9714 9.87434 11.479 9.87434C10.9867 9.87434 10.533 10.0418 10.1773 10.319L8.75652 11.419L9.1094 8.80624L9.10984 8.80272C9.13448 8.61594 9.23436 8.4527 9.37978 8.34336L16.0627 3.15466L16.061 3.15598C16.1886 3.05808 16.3481 3 16.5212 3C16.6943 3 16.8538 3.05808 16.9795 3.15466L23.6624 8.34314L23.6642 8.34446ZM16.292 14.7876L18.6204 16.5936H18.6202L18.622 16.5949C18.7656 16.7031 18.8655 16.8662 18.8906 17.0567L19.9587 25H14L11.5065 20.4852L11.5061 20.4845C11.4821 20.444 11.4379 20.4167 11.3873 20.4165H11.3835C11.3101 20.4165 11.2502 20.4759 11.2498 20.5494V25H2.99934L4.06744 17.0567L4.06788 17.0532C4.09252 16.8664 4.1924 16.7031 4.33782 16.5938L11.0208 11.4053L11.0192 11.4064C11.1435 11.3081 11.3006 11.2493 11.4715 11.2493H11.4788H11.479H11.4834C11.6552 11.2493 11.8136 11.3079 11.9375 11.4051L15.3752 14.0726L15.8702 14.4576L16.292 14.7876Z"/>
</mask>
<path fill-rule="evenodd" clip-rule="evenodd" d="M23.6642 8.34446C23.8078 8.4527 23.9077 8.61572 23.9328 8.80624L25.0007 16.7498H20.2291L20.2271 16.737C20.1307 16.2345 19.8487 15.7983 19.4498 15.4984L12.7808 10.319L12.7856 10.3225C12.425 10.0415 11.9714 9.87434 11.479 9.87434C10.9867 9.87434 10.533 10.0418 10.1773 10.319L8.75652 11.419L9.1094 8.80624L9.10984 8.80272C9.13448 8.61594 9.23436 8.4527 9.37978 8.34336L16.0627 3.15466L16.061 3.15598C16.1886 3.05808 16.3481 3 16.5212 3C16.6943 3 16.8538 3.05808 16.9795 3.15466L23.6624 8.34314L23.6642 8.34446ZM16.292 14.7876L18.6204 16.5936H18.6202L18.622 16.5949C18.7656 16.7031 18.8655 16.8662 18.8906 17.0567L19.9587 25H14L11.5065 20.4852L11.5061 20.4845C11.4821 20.444 11.4379 20.4167 11.3873 20.4165H11.3835C11.3101 20.4165 11.2502 20.4759 11.2498 20.5494V25H2.99934L4.06744 17.0567L4.06788 17.0532C4.09252 16.8664 4.1924 16.7031 4.33782 16.5938L11.0208 11.4053L11.0192 11.4064C11.1435 11.3081 11.3006 11.2493 11.4715 11.2493H11.4788H11.479H11.4834C11.6552 11.2493 11.8136 11.3079 11.9375 11.4051L15.3752 14.0726L15.8702 14.4576L16.292 14.7876Z" fill="#EC6B4D"/>
<path d="M23.9328 8.80624L22.9413 8.93675L22.9417 8.93948L23.9328 8.80624ZM23.6642 8.34446L24.2659 7.54578L24.2639 7.54425L23.6642 8.34446ZM25.0007 16.7498V17.7498H26.1441L25.9917 16.6165L25.0007 16.7498ZM20.2291 16.7498L19.2409 16.9031L19.3723 17.7498H20.2291V16.7498ZM20.2271 16.737L21.2153 16.5837L21.2126 16.5661L21.2092 16.5487L20.2271 16.737ZM19.4498 15.4984L18.8365 16.2882L18.8427 16.293L18.8489 16.2977L19.4498 15.4984ZM12.7808 10.319L13.3689 9.51023L12.1674 11.1087L12.7808 10.319ZM12.7856 10.3225L12.1974 11.1312L13.4002 9.53365L12.7856 10.3225ZM10.1773 10.319L10.7895 11.1097L10.7919 11.1078L10.1773 10.319ZM8.75652 11.419L7.76552 11.2851L7.43884 13.7038L9.36872 12.2097L8.75652 11.419ZM9.1094 8.80624L10.1005 8.94009L10.1017 8.93029L9.1094 8.80624ZM9.10984 8.80272L8.11841 8.67193L8.11757 8.67867L9.10984 8.80272ZM9.37978 8.34336L9.98075 9.14264L9.98694 9.13798L9.99305 9.13324L9.37978 8.34336ZM16.0627 3.15466L16.676 3.94454L15.4626 2.35473L16.0627 3.15466ZM16.061 3.15598L15.4522 2.36259L16.6611 3.95591L16.061 3.15598ZM16.9795 3.15466L17.5927 2.36476L17.589 2.36188L16.9795 3.15466ZM23.6624 8.34314L23.0492 9.13303L23.0559 9.13825L23.0627 9.14335L23.6624 8.34314ZM18.6204 16.5936V17.5936H21.5414L19.2333 15.8034L18.6204 16.5936ZM16.292 14.7876L15.6757 15.5752L15.6791 15.5778L16.292 14.7876ZM18.6202 16.5936V15.5936H15.6181L18.0206 17.3938L18.6202 16.5936ZM18.622 16.5949L19.2237 15.7962L19.2216 15.7946L18.622 16.5949ZM18.8906 17.0567L17.8992 17.1872L17.8995 17.1899L18.8906 17.0567ZM19.9587 25V26H21.1022L20.9498 24.8667L19.9587 25ZM14 25L13.1246 25.4835L13.4099 26H14V25ZM11.5065 20.4852L12.3819 20.0017L12.3618 19.9653L12.3388 19.9307L11.5065 20.4852ZM11.5061 20.4845L10.6457 20.9942L10.6592 21.0169L10.6738 21.0389L11.5061 20.4845ZM11.3873 20.4165L11.3916 19.4165H11.3873V20.4165ZM11.2498 20.5494L10.2498 20.5434V20.5494H11.2498ZM11.2498 25V26H12.2498V25H11.2498ZM2.99934 25L2.00826 24.8667L1.85588 26H2.99934V25ZM4.06744 17.0567L5.05857 17.19L5.05973 17.1807L4.06744 17.0567ZM4.06788 17.0532L3.07645 16.9224L3.0756 16.9292L4.06788 17.0532ZM4.33782 16.5938L4.93879 17.3931L4.94497 17.3884L4.95107 17.3837L4.33782 16.5938ZM11.0208 11.4053L11.634 12.1952L10.4397 10.5915L11.0208 11.4053ZM11.0192 11.4064L10.3988 10.6222L11.6003 12.2203L11.0192 11.4064ZM11.9375 11.4051L11.32 12.1917L11.3245 12.1952L11.9375 11.4051ZM15.3752 14.0726L15.9892 13.2833L15.9883 13.2826L15.3752 14.0726ZM15.8702 14.4576L16.4865 13.67L16.4842 13.6683L15.8702 14.4576ZM24.9242 8.67573C24.8632 8.21227 24.6182 7.81118 24.2659 7.54578L23.0624 9.14314C22.9975 9.09422 22.9522 9.01917 22.9413 8.93675L24.9242 8.67573ZM25.9917 16.6165L24.9239 8.67301L22.9417 8.93948L24.0096 16.883L25.9917 16.6165ZM20.2291 17.7498H25.0007V15.7498H20.2291V17.7498ZM19.2389 16.8904L19.2409 16.9031L21.2173 16.5964L21.2153 16.5837L19.2389 16.8904ZM18.8489 16.2977C19.0563 16.4537 19.1971 16.6754 19.245 16.9254L21.2092 16.5487C21.0644 15.7937 20.6411 15.1429 20.0508 14.6991L18.8489 16.2977ZM12.1674 11.1087L18.8365 16.2882L20.0632 14.7086L13.3941 9.52917L12.1674 11.1087ZM13.3738 9.51375L13.3689 9.51023L12.1926 11.1277L12.1974 11.1312L13.3738 9.51375ZM11.479 10.8743C11.7412 10.8743 11.9801 10.9625 12.171 11.1113L13.4002 9.53365C12.87 9.12053 12.2015 8.87434 11.479 8.87434V10.8743ZM10.7919 11.1078C10.9771 10.9635 11.2157 10.8743 11.479 10.8743V8.87434C10.7577 8.87434 10.089 9.12003 9.56263 9.53016L10.7919 11.1078ZM9.36872 12.2097L10.7895 11.1097L9.56509 9.52825L8.14433 10.6283L9.36872 12.2097ZM8.1184 8.67239L7.76552 11.2851L9.74753 11.5528L10.1004 8.94009L8.1184 8.67239ZM8.11757 8.67867L8.11713 8.68219L10.1017 8.93029L10.1021 8.92677L8.11757 8.67867ZM8.77882 7.54409C8.42736 7.80834 8.17957 8.20847 8.11843 8.67193L10.1013 8.93351C10.0894 9.02341 10.0414 9.09706 9.98075 9.14264L8.77882 7.54409ZM15.4495 2.36478L8.76652 7.55348L9.99305 9.13324L16.676 3.94454L15.4495 2.36478ZM16.6611 3.95591L16.6628 3.95459L15.4626 2.35473L15.4609 2.35605L16.6611 3.95591ZM16.5212 2C16.1205 2 15.7485 2.13533 15.4522 2.36259L16.6697 3.94937C16.6287 3.98083 16.5757 4 16.5212 4V2ZM17.589 2.36188C17.293 2.13433 16.9203 2 16.5212 2V4C16.4684 4 16.4147 3.98183 16.37 3.94744L17.589 2.36188ZM24.2757 7.55325L17.5927 2.36477L16.3662 3.94455L23.0492 9.13303L24.2757 7.55325ZM24.2639 7.54425L24.2621 7.54293L23.0627 9.14335L23.0644 9.14467L24.2639 7.54425ZM19.2333 15.8034L16.9048 13.9974L15.6791 15.5778L18.0076 17.3838L19.2333 15.8034ZM18.6202 17.5936H18.6204V15.5936H18.6202V17.5936ZM19.2216 15.7946L19.2199 15.7933L18.0206 17.3938L18.0223 17.3952L19.2216 15.7946ZM19.8821 16.9262C19.821 16.4627 19.576 16.0616 19.2237 15.7962L18.0202 17.3936C17.9553 17.3447 17.91 17.2696 17.8992 17.1872L19.8821 16.9262ZM20.9498 24.8667L19.8817 16.9234L17.8995 17.1899L18.9676 25.1333L20.9498 24.8667ZM14 26H19.9587V24H14V26ZM10.6312 20.9686L13.1246 25.4835L14.8754 24.5165L12.3819 20.0017L10.6312 20.9686ZM10.6738 21.0389L10.6743 21.0396L12.3388 19.9307L12.3383 19.9301L10.6738 21.0389ZM11.3829 21.4165C11.0686 21.4152 10.7942 21.2448 10.6457 20.9942L12.3664 19.9748C12.17 19.6433 11.8071 19.4183 11.3916 19.4165L11.3829 21.4165ZM11.3835 21.4165H11.3873V19.4165H11.3835V21.4165ZM12.2498 20.5554C12.2469 21.0327 11.8592 21.4165 11.3835 21.4165V19.4165C10.7609 19.4165 10.2535 19.9192 10.2498 20.5434L12.2498 20.5554ZM12.2498 25V20.5494H10.2498V25H12.2498ZM2.99934 26H11.2498V24H2.99934V26ZM3.07636 16.9234L2.00826 24.8667L3.99042 25.1333L5.05852 17.1899L3.07636 16.9234ZM3.0756 16.9292L3.07516 16.9327L5.05973 17.1807L5.06017 17.1772L3.0756 16.9292ZM3.73686 15.7945C3.38541 16.0588 3.13761 16.4589 3.07647 16.9224L5.05929 17.1839C5.04743 17.2739 4.9994 17.3475 4.93879 17.3931L3.73686 15.7945ZM10.4075 10.6154L3.72457 15.8039L4.95107 17.3837L11.634 12.1952L10.4075 10.6154ZM11.6003 12.2203L11.6018 12.2192L10.4397 10.5915L10.4382 10.5926L11.6003 12.2203ZM11.4715 10.2493C11.0674 10.2493 10.6933 10.3891 10.3988 10.6222L11.6397 12.1907C11.5937 12.227 11.5338 12.2493 11.4715 12.2493V10.2493ZM11.4788 10.2493H11.4715V12.2493H11.4788V10.2493ZM11.479 10.2493H11.4788V12.2493H11.479V10.2493ZM11.4834 10.2493H11.479V12.2493H11.4834V10.2493ZM12.555 10.6185C12.2592 10.3863 11.8844 10.2493 11.4834 10.2493V12.2493C11.426 12.2493 11.3681 12.2294 11.32 12.1917L12.555 10.6185ZM15.9883 13.2826L12.5505 10.6151L11.3245 12.1952L14.7622 14.8627L15.9883 13.2826ZM16.4842 13.6683L15.9892 13.2833L14.7613 14.862L15.2563 15.247L16.4842 13.6683ZM16.9082 14L16.4865 13.67L15.254 15.2452L15.6757 15.5752L16.9082 14Z" fill="white" mask="url(#path-3-outside-2_83_1254)"/>
</g>
<defs>
<clipPath id="clip0_83_1254">
<rect width="28" height="28" fill="white"/>
</clipPath>
</defs>
</svg>
