<svg width="26" height="26" viewBox="0 0 26 26" fill="none" xmlns="http://www.w3.org/2000/svg">
<mask id="path-1-outside-1_83_1212" maskUnits="userSpaceOnUse" x="-0.000656128" y="1" width="26" height="24" fill="black">
<rect fill="white" x="-0.000656128" y="1" width="26" height="24"/>
<path fill-rule="evenodd" clip-rule="evenodd" d="M22.6642 7.34446C22.8078 7.4527 22.9077 7.61572 22.9328 7.80624L24.0007 15.7498H19.2291L19.2271 15.737C19.1307 15.2345 18.8487 14.7983 18.4498 14.4984L11.7808 9.31896L11.7856 9.32248C11.425 9.04154 10.9714 8.87434 10.479 8.87434C9.98666 8.87434 9.53302 9.04176 9.17728 9.31896L7.75652 10.419L8.1094 7.80624L8.10984 7.80272C8.13448 7.61594 8.23436 7.4527 8.37978 7.34336L15.0627 2.15466L15.061 2.15598C15.1886 2.05808 15.3481 2 15.5212 2C15.6943 2 15.8538 2.05808 15.9795 2.15466L22.6624 7.34314L22.6642 7.34446ZM15.292 13.7876L17.6204 15.5936H17.6202L17.622 15.5949C17.7656 15.7031 17.8655 15.8662 17.8906 16.0567L18.9587 24H13L10.5065 19.4852L10.5061 19.4845C10.4821 19.444 10.4379 19.4167 10.3873 19.4165H10.3835C10.3101 19.4165 10.2502 19.4759 10.2498 19.5494V24H1.99934L3.06744 16.0567L3.06788 16.0532C3.09252 15.8664 3.1924 15.7031 3.33782 15.5938L10.0208 10.4053L10.0192 10.4064C10.1435 10.3081 10.3006 10.2493 10.4715 10.2493H10.4788H10.479H10.4834C10.6552 10.2493 10.8136 10.3079 10.9375 10.4051L14.3752 13.0726L14.8702 13.4576L15.292 13.7876Z"/>
</mask>
<path fill-rule="evenodd" clip-rule="evenodd" d="M22.6642 7.34446C22.8078 7.4527 22.9077 7.61572 22.9328 7.80624L24.0007 15.7498H19.2291L19.2271 15.737C19.1307 15.2345 18.8487 14.7983 18.4498 14.4984L11.7808 9.31896L11.7856 9.32248C11.425 9.04154 10.9714 8.87434 10.479 8.87434C9.98666 8.87434 9.53302 9.04176 9.17728 9.31896L7.75652 10.419L8.1094 7.80624L8.10984 7.80272C8.13448 7.61594 8.23436 7.4527 8.37978 7.34336L15.0627 2.15466L15.061 2.15598C15.1886 2.05808 15.3481 2 15.5212 2C15.6943 2 15.8538 2.05808 15.9795 2.15466L22.6624 7.34314L22.6642 7.34446ZM15.292 13.7876L17.6204 15.5936H17.6202L17.622 15.5949C17.7656 15.7031 17.8655 15.8662 17.8906 16.0567L18.9587 24H13L10.5065 19.4852L10.5061 19.4845C10.4821 19.444 10.4379 19.4167 10.3873 19.4165H10.3835C10.3101 19.4165 10.2502 19.4759 10.2498 19.5494V24H1.99934L3.06744 16.0567L3.06788 16.0532C3.09252 15.8664 3.1924 15.7031 3.33782 15.5938L10.0208 10.4053L10.0192 10.4064C10.1435 10.3081 10.3006 10.2493 10.4715 10.2493H10.4788H10.479H10.4834C10.6552 10.2493 10.8136 10.3079 10.9375 10.4051L14.3752 13.0726L14.8702 13.4576L15.292 13.7876Z" fill="#EC6B4D"/>
<path d="M22.9328 7.80624L21.9413 7.93675L21.9417 7.93948L22.9328 7.80624ZM22.6642 7.34446L23.2659 6.54578L23.2639 6.54425L22.6642 7.34446ZM24.0007 15.7498V16.7498H25.1441L24.9917 15.6165L24.0007 15.7498ZM19.2291 15.7498L18.2409 15.9031L18.3723 16.7498H19.2291V15.7498ZM19.2271 15.737L20.2153 15.5837L20.2126 15.5661L20.2092 15.5487L19.2271 15.737ZM18.4498 14.4984L17.8365 15.2882L17.8427 15.293L17.8489 15.2977L18.4498 14.4984ZM11.7808 9.31896L12.3689 8.51023L11.1674 10.1087L11.7808 9.31896ZM11.7856 9.32248L11.1974 10.1312L12.4002 8.53365L11.7856 9.32248ZM9.17728 9.31896L9.78948 10.1097L9.79193 10.1078L9.17728 9.31896ZM7.75652 10.419L6.76552 10.2851L6.43884 12.7038L8.36872 11.2097L7.75652 10.419ZM8.1094 7.80624L9.10045 7.94009L9.10168 7.93029L8.1094 7.80624ZM8.10984 7.80272L7.11841 7.67193L7.11757 7.67867L8.10984 7.80272ZM8.37978 7.34336L8.98075 8.14264L8.98694 8.13798L8.99305 8.13324L8.37978 7.34336ZM15.0627 2.15466L15.676 2.94454L14.4626 1.35473L15.0627 2.15466ZM15.061 2.15598L14.4522 1.36259L15.6611 2.95591L15.061 2.15598ZM15.9795 2.15466L16.5927 1.36476L16.589 1.36188L15.9795 2.15466ZM22.6624 7.34314L22.0492 8.13303L22.0559 8.13825L22.0627 8.14335L22.6624 7.34314ZM17.6204 15.5936V16.5936H20.5414L18.2333 14.8034L17.6204 15.5936ZM15.292 13.7876L14.6757 14.5752L14.6791 14.5778L15.292 13.7876ZM17.6202 15.5936V14.5936H14.6181L17.0206 16.3938L17.6202 15.5936ZM17.622 15.5949L18.2237 14.7962L18.2216 14.7946L17.622 15.5949ZM17.8906 16.0567L16.8992 16.1872L16.8995 16.1899L17.8906 16.0567ZM18.9587 24V25H20.1022L19.9498 23.8667L18.9587 24ZM13 24L12.1246 24.4835L12.4099 25H13V24ZM10.5065 19.4852L11.3819 19.0017L11.3618 18.9653L11.3388 18.9307L10.5065 19.4852ZM10.5061 19.4845L9.64572 19.9942L9.65919 20.0169L9.67385 20.0389L10.5061 19.4845ZM10.3873 19.4165L10.3916 18.4165H10.3873V19.4165ZM10.2498 19.5494L9.24978 19.5434V19.5494H10.2498ZM10.2498 24V25H11.2498V24H10.2498ZM1.99934 24L1.00826 23.8667L0.855879 25H1.99934V24ZM3.06744 16.0567L4.05857 16.19L4.05973 16.1807L3.06744 16.0567ZM3.06788 16.0532L2.07645 15.9224L2.0756 15.9292L3.06788 16.0532ZM3.33782 15.5938L3.93879 16.3931L3.94497 16.3884L3.95107 16.3837L3.33782 15.5938ZM10.0208 10.4053L10.634 11.1952L9.43972 9.59145L10.0208 10.4053ZM10.0192 10.4064L9.39877 9.62218L10.6003 11.2203L10.0192 10.4064ZM10.9375 10.4051L10.32 11.1917L10.3245 11.1952L10.9375 10.4051ZM14.3752 13.0726L14.9892 12.2833L14.9883 12.2826L14.3752 13.0726ZM14.8702 13.4576L15.4865 12.67L15.4842 12.6683L14.8702 13.4576ZM23.9242 7.67573C23.8632 7.21227 23.6182 6.81118 23.2659 6.54578L22.0624 8.14314C21.9975 8.09422 21.9522 8.01917 21.9413 7.93675L23.9242 7.67573ZM24.9917 15.6165L23.9239 7.67301L21.9417 7.93948L23.0096 15.883L24.9917 15.6165ZM19.2291 16.7498H24.0007V14.7498H19.2291V16.7498ZM18.2389 15.8904L18.2409 15.9031L20.2173 15.5964L20.2153 15.5837L18.2389 15.8904ZM17.8489 15.2977C18.0563 15.4537 18.1971 15.6754 18.245 15.9254L20.2092 15.5487C20.0644 14.7937 19.6411 14.1429 19.0508 13.6991L17.8489 15.2977ZM11.1674 10.1087L17.8365 15.2882L19.0632 13.7086L12.3941 8.52917L11.1674 10.1087ZM12.3738 8.51375L12.3689 8.51023L11.1926 10.1277L11.1974 10.1312L12.3738 8.51375ZM10.479 9.87434C10.7412 9.87434 10.9801 9.96255 11.171 10.1113L12.4002 8.53365C11.87 8.12053 11.2015 7.87434 10.479 7.87434V9.87434ZM9.79193 10.1078C9.97707 9.9635 10.2157 9.87434 10.479 9.87434V7.87434C9.75766 7.87434 9.08897 8.12003 8.56263 8.53016L9.79193 10.1078ZM8.36872 11.2097L9.78948 10.1097L8.56509 8.52825L7.14433 9.62825L8.36872 11.2097ZM7.1184 7.67239L6.76552 10.2851L8.74753 10.5528L9.10041 7.94009L7.1184 7.67239ZM7.11757 7.67867L7.11713 7.68219L9.10168 7.93029L9.10212 7.92677L7.11757 7.67867ZM7.77882 6.54409C7.42736 6.80834 7.17957 7.20847 7.11843 7.67193L9.10125 7.93351C9.08939 8.02341 9.04136 8.09706 8.98075 8.14264L7.77882 6.54409ZM14.4495 1.36478L7.76652 6.55348L8.99305 8.13324L15.676 2.94454L14.4495 1.36478ZM15.6611 2.95591L15.6628 2.95459L14.4626 1.35473L14.4609 1.35605L15.6611 2.95591ZM15.5212 1C15.1205 1 14.7485 1.13533 14.4522 1.36259L15.6697 2.94937C15.6287 2.98083 15.5757 3 15.5212 3V1ZM16.589 1.36188C16.293 1.13433 15.9203 1 15.5212 1V3C15.4684 3 15.4147 2.98183 15.37 2.94744L16.589 1.36188ZM23.2757 6.55325L16.5927 1.36477L15.3662 2.94455L22.0492 8.13303L23.2757 6.55325ZM23.2639 6.54425L23.2621 6.54293L22.0627 8.14335L22.0644 8.14467L23.2639 6.54425ZM18.2333 14.8034L15.9048 12.9974L14.6791 14.5778L17.0076 16.3838L18.2333 14.8034ZM17.6202 16.5936H17.6204V14.5936H17.6202V16.5936ZM18.2216 14.7946L18.2199 14.7933L17.0206 16.3938L17.0223 16.3952L18.2216 14.7946ZM18.8821 15.9262C18.821 15.4627 18.576 15.0616 18.2237 14.7962L17.0202 16.3936C16.9553 16.3447 16.91 16.2696 16.8992 16.1872L18.8821 15.9262ZM19.9498 23.8667L18.8817 15.9234L16.8995 16.1899L17.9676 24.1333L19.9498 23.8667ZM13 25H18.9587V23H13V25ZM9.63115 19.9686L12.1246 24.4835L13.8754 23.5165L11.3819 19.0017L9.63115 19.9686ZM9.67385 20.0389L9.67429 20.0396L11.3388 18.9307L11.3383 18.9301L9.67385 20.0389ZM10.3829 20.4165C10.0686 20.4152 9.79418 20.2448 9.64572 19.9942L11.3664 18.9748C11.17 18.6433 10.8071 18.4183 10.3916 18.4165L10.3829 20.4165ZM10.3835 20.4165H10.3873V18.4165H10.3835V20.4165ZM11.2498 19.5554C11.2469 20.0327 10.8592 20.4165 10.3835 20.4165V18.4165C9.76094 18.4165 9.25354 18.9192 9.2498 19.5434L11.2498 19.5554ZM11.2498 24V19.5494H9.24978V24H11.2498ZM1.99934 25H10.2498V23H1.99934V25ZM2.07636 15.9234L1.00826 23.8667L2.99042 24.1333L4.05852 16.1899L2.07636 15.9234ZM2.0756 15.9292L2.07516 15.9327L4.05973 16.1807L4.06017 16.1772L2.0756 15.9292ZM2.73686 14.7945C2.38541 15.0588 2.13761 15.4589 2.07647 15.9224L4.05929 16.1839C4.04743 16.2739 3.9994 16.3475 3.93879 16.3931L2.73686 14.7945ZM9.40751 9.61544L2.72457 14.8039L3.95107 16.3837L10.634 11.1952L9.40751 9.61544ZM10.6003 11.2203L10.6018 11.2192L9.43972 9.59145L9.43818 9.59255L10.6003 11.2203ZM10.4715 9.24934C10.0674 9.24934 9.69332 9.38915 9.39877 9.62218L10.6397 11.1907C10.5937 11.227 10.5338 11.2493 10.4715 11.2493V9.24934ZM10.4788 9.24934H10.4715V11.2493H10.4788V9.24934ZM10.479 9.24934H10.4788V11.2493H10.479V9.24934ZM10.4834 9.24934H10.479V11.2493H10.4834V9.24934ZM11.555 9.61854C11.2592 9.38632 10.8844 9.24934 10.4834 9.24934V11.2493C10.426 11.2493 10.3681 11.2294 10.32 11.1917L11.555 9.61854ZM14.9883 12.2826L11.5505 9.61505L10.3245 11.1952L13.7622 13.8627L14.9883 12.2826ZM15.4842 12.6683L14.9892 12.2833L13.7613 13.862L14.2563 14.247L15.4842 12.6683ZM15.9082 13L15.4865 12.67L14.254 14.2452L14.6757 14.5752L15.9082 13Z" fill="white" mask="url(#path-1-outside-1_83_1212)"/>
</svg>
