<svg width="26" height="26" viewBox="0 0 26 26" fill="none" xmlns="http://www.w3.org/2000/svg">
<mask id="path-1-outside-1_83_1250" maskUnits="userSpaceOnUse" x="-0.000656128" y="0" width="26" height="26" fill="black">
<rect fill="white" x="-0.000656128" width="26" height="26"/>
<path fill-rule="evenodd" clip-rule="evenodd" d="M22.6642 7.34446C22.8078 7.4527 22.9077 7.61572 22.9328 7.80624L24.0007 15.7498H19.2291L19.2271 15.737C19.1307 15.2345 18.8487 14.7983 18.4498 14.4984L11.7808 9.31896L11.7856 9.32248C11.425 9.04154 10.9714 8.87434 10.479 8.87434C9.98666 8.87434 9.53302 9.04176 9.17728 9.31896L7.75652 10.419L8.1094 7.80624L8.10984 7.80272C8.13448 7.61594 8.23436 7.4527 8.37978 7.34336L15.0627 2.15466L15.061 2.15598C15.1886 2.05808 15.3481 2 15.5212 2C15.6943 2 15.8538 2.05808 15.9795 2.15466L22.6624 7.34314L22.6642 7.34446ZM15.292 13.7876L17.6204 15.5936H17.6202L17.622 15.5949C17.7656 15.7031 17.8655 15.8662 17.8906 16.0567L18.9587 24H13L10.5065 19.4852L10.5061 19.4845C10.4821 19.444 10.4379 19.4167 10.3873 19.4165H10.3835C10.3101 19.4165 10.2502 19.4759 10.2498 19.5494V24H1.99934L3.06744 16.0567L3.06788 16.0532C3.09252 15.8664 3.1924 15.7031 3.33782 15.5938L10.0208 10.4053L10.0192 10.4064C10.1435 10.3081 10.3006 10.2493 10.4715 10.2493H10.4788H10.479H10.4834C10.6552 10.2493 10.8136 10.3079 10.9375 10.4051L14.3752 13.0726L14.8702 13.4576L15.292 13.7876Z"/>
</mask>
<path fill-rule="evenodd" clip-rule="evenodd" d="M22.6642 7.34446C22.8078 7.4527 22.9077 7.61572 22.9328 7.80624L24.0007 15.7498H19.2291L19.2271 15.737C19.1307 15.2345 18.8487 14.7983 18.4498 14.4984L11.7808 9.31896L11.7856 9.32248C11.425 9.04154 10.9714 8.87434 10.479 8.87434C9.98666 8.87434 9.53302 9.04176 9.17728 9.31896L7.75652 10.419L8.1094 7.80624L8.10984 7.80272C8.13448 7.61594 8.23436 7.4527 8.37978 7.34336L15.0627 2.15466L15.061 2.15598C15.1886 2.05808 15.3481 2 15.5212 2C15.6943 2 15.8538 2.05808 15.9795 2.15466L22.6624 7.34314L22.6642 7.34446ZM15.292 13.7876L17.6204 15.5936H17.6202L17.622 15.5949C17.7656 15.7031 17.8655 15.8662 17.8906 16.0567L18.9587 24H13L10.5065 19.4852L10.5061 19.4845C10.4821 19.444 10.4379 19.4167 10.3873 19.4165H10.3835C10.3101 19.4165 10.2502 19.4759 10.2498 19.5494V24H1.99934L3.06744 16.0567L3.06788 16.0532C3.09252 15.8664 3.1924 15.7031 3.33782 15.5938L10.0208 10.4053L10.0192 10.4064C10.1435 10.3081 10.3006 10.2493 10.4715 10.2493H10.4788H10.479H10.4834C10.6552 10.2493 10.8136 10.3079 10.9375 10.4051L14.3752 13.0726L14.8702 13.4576L15.292 13.7876Z" fill="#EC6B4D"/>
<path d="M22.9328 7.80624L21.4456 8.00201L21.4462 8.00609L22.9328 7.80624ZM22.6642 7.34446L23.5668 6.14644L23.5637 6.14415L22.6642 7.34446ZM24.0007 15.7498V17.2498H25.7158L25.4873 15.5499L24.0007 15.7498ZM19.2291 15.7498L17.7468 15.9798L17.9439 17.2498H19.2291V15.7498ZM19.2271 15.737L20.7094 15.507L20.7053 15.4807L20.7003 15.4545L19.2271 15.737ZM18.4498 14.4984L17.5298 15.6831L17.5391 15.6903L17.5485 15.6974L18.4498 14.4984ZM11.7808 9.31896L12.663 8.10587L10.8607 10.5036L11.7808 9.31896ZM11.7856 9.32248L10.9033 10.5356L12.7075 8.13923L11.7856 9.32248ZM9.17728 9.31896L10.0956 10.505L10.0993 10.5022L9.17728 9.31896ZM7.75652 10.419L6.27002 10.2182L5.78 13.8463L8.67481 11.605L7.75652 10.419ZM8.1094 7.80624L9.59591 8.00701L9.5969 7.99967L9.59782 7.99232L8.1094 7.80624ZM8.10984 7.80272L6.62269 7.60653L6.62143 7.61664L8.10984 7.80272ZM8.37978 7.34336L9.28123 8.54227L9.29051 8.53529L9.29968 8.52817L8.37978 7.34336ZM15.0627 2.15466L15.9826 3.33947L14.1626 0.954772L15.0627 2.15466ZM15.061 2.15598L14.1479 0.965902L15.9611 3.35587L15.061 2.15598ZM15.9795 2.15466L16.8994 0.969815L16.8937 0.965492L15.9795 2.15466ZM22.6624 7.34314L21.7425 8.52797L21.7526 8.5358L21.7628 8.54345L22.6624 7.34314ZM17.6204 15.5936V17.0936H22.0019L18.5397 14.4083L17.6204 15.5936ZM15.292 13.7876L14.3676 14.969L14.3727 14.9729L15.292 13.7876ZM17.6202 15.5936V14.0936H13.117L16.7207 16.794L17.6202 15.5936ZM17.622 15.5949L18.5246 14.3969L18.5215 14.3945L17.622 15.5949ZM17.8906 16.0567L16.4034 16.2525L16.404 16.2566L17.8906 16.0567ZM18.9587 24V25.5H20.6739L20.4453 23.8001L18.9587 24ZM13 24L11.6869 24.7252L12.1149 25.5H13V24ZM10.5065 19.4852L11.8196 18.76L11.7894 18.7054L11.7549 18.6535L10.5065 19.4852ZM10.5061 19.4845L9.21554 20.249L9.23575 20.2831L9.25773 20.3161L10.5061 19.4845ZM10.3873 19.4165L10.3938 17.9165H10.3873V19.4165ZM10.2498 19.5494L8.74978 19.5404V19.5494H10.2498ZM10.2498 24V25.5H11.7498V24H10.2498ZM1.99934 24L0.512723 23.8001L0.284146 25.5H1.99934V24ZM3.06744 16.0567L4.55413 16.2566L4.55587 16.2427L3.06744 16.0567ZM3.06788 16.0532L1.58073 15.857L1.57946 15.8672L3.06788 16.0532ZM3.33782 15.5938L4.23927 16.7927L4.24854 16.7857L4.2577 16.7786L3.33782 15.5938ZM10.0208 10.4053L10.9406 11.5902L9.14919 9.18452L10.0208 10.4053ZM10.0192 10.4064L9.08854 9.23006L10.8908 11.6272L10.0192 10.4064ZM10.9375 10.4051L10.0112 11.585L10.0179 11.5902L10.9375 10.4051ZM14.3752 13.0726L15.2961 11.8886L15.2948 11.8875L14.3752 13.0726ZM14.8702 13.4576L15.7946 12.2763L15.7911 12.2736L14.8702 13.4576ZM24.42 7.61047C24.341 7.01054 24.0233 6.49042 23.5668 6.14644L21.7615 8.54248C21.5923 8.41498 21.4744 8.2209 21.4456 8.00201L24.42 7.61047ZM25.4873 15.5499L24.4194 7.60639L21.4462 8.00609L22.514 15.9496L25.4873 15.5499ZM19.2291 17.2498H24.0007V14.2498H19.2291V17.2498ZM17.7448 15.967L17.7468 15.9798L20.7113 15.5198L20.7094 15.507L17.7448 15.967ZM17.5485 15.6974C17.6601 15.7813 17.7302 15.8958 17.7539 16.0195L20.7003 15.4545C20.5313 14.5733 20.0373 13.8152 19.3512 13.2995L17.5485 15.6974ZM10.8607 10.5036L17.5298 15.6831L19.3699 13.3137L12.7008 8.13428L10.8607 10.5036ZM12.6679 8.10939L12.663 8.10587L10.8985 10.5321L10.9033 10.5356L12.6679 8.10939ZM10.479 10.3743C10.6261 10.3743 10.7576 10.423 10.8637 10.5057L12.7075 8.13923C12.0925 7.66003 11.3166 7.37434 10.479 7.37434V10.3743ZM10.0993 10.5022C10.1991 10.4244 10.3302 10.3743 10.479 10.3743V7.37434C9.64315 7.37434 8.86695 7.65916 8.25531 8.13576L10.0993 10.5022ZM8.67481 11.605L10.0956 10.505L8.25899 8.1329L6.83823 9.2329L8.67481 11.605ZM6.6229 7.60547L6.27002 10.2182L9.24303 10.6197L9.59591 8.00701L6.6229 7.60547ZM6.62143 7.61664L6.62099 7.62016L9.59782 7.99232L9.59826 7.9888L6.62143 7.61664ZM7.47833 6.14445C7.02386 6.48616 6.70212 7.00474 6.62273 7.60654L9.59696 7.9989C9.56685 8.22714 9.44486 8.41924 9.28123 8.54227L7.47833 6.14445ZM14.1428 0.969847L7.45988 6.15855L9.29968 8.52817L15.9826 3.33947L14.1428 0.969847ZM15.9611 3.35587L15.9629 3.35455L14.1626 0.954772L14.1608 0.956092L15.9611 3.35587ZM15.5212 0.5C15.0067 0.5 14.5284 0.673951 14.1479 0.965902L15.974 3.34606C15.8487 3.44221 15.6894 3.5 15.5212 3.5V0.5ZM16.8937 0.965492C16.5126 0.672449 16.0333 0.5 15.5212 0.5V3.5C15.3554 3.5 15.1951 3.44371 15.0652 3.34383L16.8937 0.965492ZM23.5823 6.15831L16.8993 0.969828L15.0596 3.33949L21.7425 8.52797L23.5823 6.15831ZM23.5637 6.14415L23.562 6.14283L21.7628 8.54345L21.7646 8.54477L23.5637 6.14415ZM18.5397 14.4083L16.2113 12.6023L14.3727 14.9729L16.7011 16.7789L18.5397 14.4083ZM17.6202 17.0936H17.6204V14.0936H17.6202V17.0936ZM18.5215 14.3945L18.5197 14.3932L16.7207 16.794L16.7225 16.7953L18.5215 14.3945ZM19.3778 15.8609C19.2988 15.261 18.9812 14.7409 18.5246 14.3969L16.7193 16.7929C16.5501 16.6654 16.4322 16.4713 16.4034 16.2525L19.3778 15.8609ZM20.4453 23.8001L19.3772 15.8568L16.404 16.2566L17.4721 24.1999L20.4453 23.8001ZM13 25.5H18.9587V22.5H13V25.5ZM9.19347 20.2103L11.6869 24.7252L14.3131 23.2748L11.8196 18.76L9.19347 20.2103ZM9.25773 20.3161L9.25817 20.3168L11.7549 18.6535L11.7544 18.6529L9.25773 20.3161ZM10.3808 20.9165C9.88403 20.9144 9.45021 20.6452 9.21554 20.249L11.7966 18.72C11.514 18.2429 10.9917 17.9191 10.3938 17.9165L10.3808 20.9165ZM10.3835 20.9165H10.3873V17.9165H10.3835V20.9165ZM11.7498 19.5584C11.7453 20.311 11.1338 20.9165 10.3835 20.9165V17.9165C9.48637 17.9165 8.75519 18.6408 8.74981 19.5404L11.7498 19.5584ZM11.7498 24V19.5494H8.74978V24H11.7498ZM1.99934 25.5H10.2498V22.5H1.99934V25.5ZM1.58082 15.8568L0.512723 23.8001L3.48596 24.1999L4.55406 16.2566L1.58082 15.8568ZM1.57946 15.8672L1.57902 15.8707L4.55587 16.2427L4.55631 16.2392L1.57946 15.8672ZM2.43638 14.3949C1.98191 14.7366 1.66016 15.2552 1.58077 15.857L4.555 16.2493C4.52489 16.4776 4.4029 16.6697 4.23927 16.7927L2.43638 14.3949ZM9.10089 9.22049L2.41795 14.409L4.2577 16.7786L10.9406 11.5902L9.10089 9.22049ZM10.8908 11.6272L10.8923 11.6261L9.14919 9.18452L9.14765 9.18562L10.8908 11.6272ZM10.4715 8.74934C9.9508 8.74934 9.46822 8.92968 9.08854 9.23006L10.9499 11.5828C10.8188 11.6865 10.6504 11.7493 10.4715 11.7493V8.74934ZM10.4788 8.74934H10.4715V11.7493H10.4788V8.74934ZM10.479 8.74934H10.4788V11.7493H10.479V8.74934ZM10.4834 8.74934H10.479V11.7493H10.4834V8.74934ZM11.8638 9.22526C11.482 8.92554 10.999 8.74934 10.4834 8.74934V11.7493C10.3114 11.7493 10.1453 11.6902 10.0112 11.5849L11.8638 9.22526ZM15.2948 11.8875L11.8571 9.22003L10.0179 11.5902L13.4557 14.2577L15.2948 11.8875ZM15.7911 12.2736L15.2961 11.8886L13.4543 14.2566L13.9493 14.6416L15.7911 12.2736ZM16.2163 12.6063L15.7946 12.2763L13.9459 14.6389L14.3676 14.9689L16.2163 12.6063Z" fill="#2C2C2C" mask="url(#path-1-outside-1_83_1250)"/>
</svg>
