<svg width="26" height="26" viewBox="0 0 26 26" fill="none" xmlns="http://www.w3.org/2000/svg">
<g clip-path="url(#clip0_83_1187)">
<path d="M18.7451 8.07271L18.744 8.07179L18.131 7.59579L18.1306 7.59545L13.8743 4.29788C13.8743 4.29784 13.8742 4.29781 13.8742 4.29777C13.6245 4.10384 13.3171 3.99909 13.0011 4.00004C12.6838 3.99772 12.375 4.10282 12.125 4.29837C12.1247 4.29865 12.1243 4.29893 12.124 4.29922L8.99886 6.72282L8.99872 6.72293L3.8544 10.7095C3.56382 10.9277 3.37342 11.2538 3.32672 11.6144C3.32664 11.6149 3.32657 11.6155 3.32649 11.6161L2.00447 21.4333L1.92816 22H2.5H23.5H24.0718L23.9955 21.4333L22.6735 11.6161C22.6734 11.6156 22.6734 11.615 22.6733 11.6145C22.6266 11.2539 22.4362 10.9277 22.1455 10.7095L19.2673 8.48071L19.2656 8.47937L18.7451 8.07271Z" fill="#EC6B4D" stroke="white"/>
<path d="M21.8427 11.1074L18.9595 8.8747L18.4373 8.4667L17.8243 7.9907L13.5676 4.69271C13.4054 4.56671 13.2055 4.49885 13 4.50005C12.7944 4.49796 12.5942 4.56592 12.4324 4.69271L9.30514 7.11804L4.1573 11.1074C3.97255 11.2449 3.85169 11.4515 3.82243 11.6797L2.5 21.5H23.5L22.1776 11.6797C22.1483 11.4515 22.0274 11.2449 21.8427 11.1074Z" fill="#EC6B4D"/>
</g>
<g clip-path="url(#clip1_83_1187)">
<mask id="path-3-inside-1_83_1187" fill="white">
<path d="M15.9378 15.6917L15.8983 15.6417C15.4841 16.3731 14.8093 16.9214 14.0085 17.1771C13.8877 17.2159 13.7645 17.2472 13.6398 17.2708H13.6377C13.477 17.3031 13.314 17.3226 13.1502 17.3292L13.2606 17.2417C13.3279 17.1877 13.3767 17.1142 13.4005 17.0312C13.4242 16.9483 13.4216 16.86 13.393 16.7786C13.3644 16.6972 13.3113 16.6267 13.2409 16.5768C13.1705 16.5269 13.0864 16.5001 13.0002 16.5C12.9054 16.4996 12.8133 16.5319 12.7397 16.5917L12.0022 17.1813L11.698 17.425C11.6493 17.4641 11.6101 17.5136 11.583 17.5698C11.556 17.626 11.5419 17.6876 11.5417 17.75C11.5418 17.8074 11.5539 17.8642 11.5771 17.9167C11.605 17.9779 11.6463 18.032 11.698 18.075L12.7397 18.9083C12.8133 18.9681 12.9054 19.0005 13.0002 19C13.0864 18.9999 13.1705 18.9731 13.2409 18.9232C13.3113 18.8733 13.3644 18.8028 13.393 18.7214C13.4216 18.64 13.4242 18.5517 13.4005 18.4688C13.3767 18.3859 13.3279 18.3123 13.2606 18.2583L13.1418 18.1625C13.2848 18.1602 13.4275 18.1484 13.5689 18.1271C13.6814 18.1125 13.794 18.0917 13.9044 18.0667C14.4694 17.9403 15.002 17.6979 15.4683 17.3546C15.9346 17.0114 16.3244 16.5749 16.6129 16.0729C16.3463 16.0401 16.1036 15.903 15.9378 15.6917V15.6917ZM10.0623 12.3083L10.1018 12.3583C10.5159 11.6269 11.1908 11.0785 11.9915 10.8229C12.1124 10.7841 12.2356 10.7528 12.3603 10.7292H12.3624C12.5231 10.6969 12.6861 10.6774 12.8499 10.6708L12.7395 10.7583C12.6722 10.8123 12.6233 10.8859 12.5996 10.9688C12.5759 11.0517 12.5785 11.14 12.6071 11.2214C12.6357 11.3028 12.6888 11.3733 12.7592 11.4232C12.8296 11.4731 12.9137 11.4999 12.9999 11.5C13.0947 11.5005 13.1868 11.4681 13.2604 11.4083L13.9979 10.8188L14.3021 10.575C14.3508 10.5359 14.39 10.4865 14.4171 10.4302C14.4441 10.374 14.4582 10.3124 14.4584 10.25C14.4583 10.1926 14.4462 10.1358 14.4229 10.0833C14.3951 10.0221 14.3538 9.96802 14.3021 9.925L13.2604 9.09167C13.1868 9.03195 13.0947 8.99955 12.9999 9C12.9137 9.00007 12.8296 9.02691 12.7592 9.07682C12.6888 9.12673 12.6357 9.19724 12.6071 9.27863C12.5785 9.36002 12.5759 9.44828 12.5996 9.53122C12.6233 9.61416 12.6722 9.68769 12.7395 9.74167L12.8583 9.8375C12.7153 9.83981 12.5726 9.85164 12.4312 9.87292C12.3187 9.8875 12.2061 9.90834 12.0957 9.93334C11.5293 10.0597 10.9955 10.3029 10.5285 10.6473C10.0614 10.9917 9.67126 11.4297 9.38305 11.9333C9.65017 11.9635 9.89442 12.0984 10.0623 12.3083V12.3083ZM9.82266 15.0083C9.73536 14.7299 9.68424 14.4415 9.67057 14.15L9.75807 14.2604C9.79699 14.3093 9.84643 14.3487 9.90271 14.3757C9.95899 14.4028 10.0206 14.4168 10.0831 14.4167C10.1779 14.4171 10.2699 14.3847 10.3435 14.325C10.4296 14.2559 10.4848 14.1554 10.4969 14.0457C10.509 13.9359 10.4771 13.8258 10.4081 13.7396L9.8185 13.0021L9.57473 12.6979C9.53491 12.6507 9.48509 12.6129 9.42888 12.5874C9.37266 12.5618 9.31146 12.549 9.24971 12.55C9.19178 12.5496 9.13436 12.5609 9.08095 12.5833C9.01998 12.6076 8.9662 12.6471 8.92469 12.6979L8.0913 13.7396C8.02234 13.8258 7.99041 13.9359 8.00252 14.0457C8.01462 14.1554 8.06978 14.2559 8.15589 14.325C8.2295 14.3847 8.32153 14.4171 8.41632 14.4167C8.47877 14.4168 8.54043 14.4028 8.59671 14.3757C8.65299 14.3487 8.70243 14.3093 8.74134 14.2604L8.83718 14.1417C8.83951 14.2847 8.85134 14.4273 8.8726 14.5688C8.88719 14.6813 8.90802 14.7938 8.93302 14.9042C9.05936 15.4692 9.30186 16.0018 9.64512 16.468C9.98838 16.9343 10.4249 17.324 10.9269 17.6125C10.9598 17.346 11.0968 17.1033 11.3082 16.9375L11.3582 16.8979C10.6266 16.4839 10.0783 15.8091 9.82266 15.0083V15.0083ZM17.844 13.675C17.7704 13.6153 17.6784 13.5829 17.5836 13.5833C17.5211 13.5832 17.4595 13.5972 17.4032 13.6243C17.3469 13.6513 17.2975 13.6908 17.2585 13.7396L17.1627 13.8583C17.1604 13.7153 17.1485 13.5727 17.1273 13.4313C17.1127 13.3188 17.0919 13.2063 17.0669 13.0958C16.9405 12.5308 16.698 11.9983 16.3548 11.532C16.0115 11.0657 15.575 10.676 15.073 10.3875C15.0401 10.6541 14.903 10.8967 14.6917 11.0625L14.6417 11.1021C15.3732 11.5161 15.9216 12.1909 16.1772 12.9917C16.2645 13.2701 16.3156 13.5586 16.3293 13.85L16.2418 13.7396C16.2029 13.6908 16.1535 13.6513 16.0972 13.6243C16.0409 13.5972 15.9792 13.5832 15.9168 13.5833C15.822 13.5829 15.73 13.6153 15.6564 13.675C15.5703 13.7441 15.5151 13.8446 15.503 13.9544C15.4909 14.0641 15.5228 14.1742 15.5918 14.2604L16.1814 14.9979L16.4252 15.3021C16.4642 15.3507 16.5137 15.39 16.57 15.4171C16.6262 15.4441 16.6878 15.4582 16.7502 15.4583C16.8076 15.4583 16.8644 15.4462 16.9169 15.4229C16.9781 15.3951 17.0322 15.3538 17.0752 15.3021L17.9086 14.2604C17.9775 14.1742 18.0095 14.0641 17.9974 13.9544C17.9853 13.8446 17.9301 13.7441 17.844 13.675V13.675Z"/>
</mask>
<path d="M15.9378 15.6917L15.8983 15.6417C15.4841 16.3731 14.8093 16.9214 14.0085 17.1771C13.8877 17.2159 13.7645 17.2472 13.6398 17.2708H13.6377C13.477 17.3031 13.314 17.3226 13.1502 17.3292L13.2606 17.2417C13.3279 17.1877 13.3767 17.1142 13.4005 17.0312C13.4242 16.9483 13.4216 16.86 13.393 16.7786C13.3644 16.6972 13.3113 16.6267 13.2409 16.5768C13.1705 16.5269 13.0864 16.5001 13.0002 16.5C12.9054 16.4996 12.8133 16.5319 12.7397 16.5917L12.0022 17.1813L11.698 17.425C11.6493 17.4641 11.6101 17.5136 11.583 17.5698C11.556 17.626 11.5419 17.6876 11.5417 17.75C11.5418 17.8074 11.5539 17.8642 11.5771 17.9167C11.605 17.9779 11.6463 18.032 11.698 18.075L12.7397 18.9083C12.8133 18.9681 12.9054 19.0005 13.0002 19C13.0864 18.9999 13.1705 18.9731 13.2409 18.9232C13.3113 18.8733 13.3644 18.8028 13.393 18.7214C13.4216 18.64 13.4242 18.5517 13.4005 18.4688C13.3767 18.3859 13.3279 18.3123 13.2606 18.2583L13.1418 18.1625C13.2848 18.1602 13.4275 18.1484 13.5689 18.1271C13.6814 18.1125 13.794 18.0917 13.9044 18.0667C14.4694 17.9403 15.002 17.6979 15.4683 17.3546C15.9346 17.0114 16.3244 16.5749 16.6129 16.0729C16.3463 16.0401 16.1036 15.903 15.9378 15.6917V15.6917ZM10.0623 12.3083L10.1018 12.3583C10.5159 11.6269 11.1908 11.0785 11.9915 10.8229C12.1124 10.7841 12.2356 10.7528 12.3603 10.7292H12.3624C12.5231 10.6969 12.6861 10.6774 12.8499 10.6708L12.7395 10.7583C12.6722 10.8123 12.6233 10.8859 12.5996 10.9688C12.5759 11.0517 12.5785 11.14 12.6071 11.2214C12.6357 11.3028 12.6888 11.3733 12.7592 11.4232C12.8296 11.4731 12.9137 11.4999 12.9999 11.5C13.0947 11.5005 13.1868 11.4681 13.2604 11.4083L13.9979 10.8188L14.3021 10.575C14.3508 10.5359 14.39 10.4865 14.4171 10.4302C14.4441 10.374 14.4582 10.3124 14.4584 10.25C14.4583 10.1926 14.4462 10.1358 14.4229 10.0833C14.3951 10.0221 14.3538 9.96802 14.3021 9.925L13.2604 9.09167C13.1868 9.03195 13.0947 8.99955 12.9999 9C12.9137 9.00007 12.8296 9.02691 12.7592 9.07682C12.6888 9.12673 12.6357 9.19724 12.6071 9.27863C12.5785 9.36002 12.5759 9.44828 12.5996 9.53122C12.6233 9.61416 12.6722 9.68769 12.7395 9.74167L12.8583 9.8375C12.7153 9.83981 12.5726 9.85164 12.4312 9.87292C12.3187 9.8875 12.2061 9.90834 12.0957 9.93334C11.5293 10.0597 10.9955 10.3029 10.5285 10.6473C10.0614 10.9917 9.67126 11.4297 9.38305 11.9333C9.65017 11.9635 9.89442 12.0984 10.0623 12.3083V12.3083ZM9.82266 15.0083C9.73536 14.7299 9.68424 14.4415 9.67057 14.15L9.75807 14.2604C9.79699 14.3093 9.84643 14.3487 9.90271 14.3757C9.95899 14.4028 10.0206 14.4168 10.0831 14.4167C10.1779 14.4171 10.2699 14.3847 10.3435 14.325C10.4296 14.2559 10.4848 14.1554 10.4969 14.0457C10.509 13.9359 10.4771 13.8258 10.4081 13.7396L9.8185 13.0021L9.57473 12.6979C9.53491 12.6507 9.48509 12.6129 9.42888 12.5874C9.37266 12.5618 9.31146 12.549 9.24971 12.55C9.19178 12.5496 9.13436 12.5609 9.08095 12.5833C9.01998 12.6076 8.9662 12.6471 8.92469 12.6979L8.0913 13.7396C8.02234 13.8258 7.99041 13.9359 8.00252 14.0457C8.01462 14.1554 8.06978 14.2559 8.15589 14.325C8.2295 14.3847 8.32153 14.4171 8.41632 14.4167C8.47877 14.4168 8.54043 14.4028 8.59671 14.3757C8.65299 14.3487 8.70243 14.3093 8.74134 14.2604L8.83718 14.1417C8.83951 14.2847 8.85134 14.4273 8.8726 14.5688C8.88719 14.6813 8.90802 14.7938 8.93302 14.9042C9.05936 15.4692 9.30186 16.0018 9.64512 16.468C9.98838 16.9343 10.4249 17.324 10.9269 17.6125C10.9598 17.346 11.0968 17.1033 11.3082 16.9375L11.3582 16.8979C10.6266 16.4839 10.0783 15.8091 9.82266 15.0083V15.0083ZM17.844 13.675C17.7704 13.6153 17.6784 13.5829 17.5836 13.5833C17.5211 13.5832 17.4595 13.5972 17.4032 13.6243C17.3469 13.6513 17.2975 13.6908 17.2585 13.7396L17.1627 13.8583C17.1604 13.7153 17.1485 13.5727 17.1273 13.4313C17.1127 13.3188 17.0919 13.2063 17.0669 13.0958C16.9405 12.5308 16.698 11.9983 16.3548 11.532C16.0115 11.0657 15.575 10.676 15.073 10.3875C15.0401 10.6541 14.903 10.8967 14.6917 11.0625L14.6417 11.1021C15.3732 11.5161 15.9216 12.1909 16.1772 12.9917C16.2645 13.2701 16.3156 13.5586 16.3293 13.85L16.2418 13.7396C16.2029 13.6908 16.1535 13.6513 16.0972 13.6243C16.0409 13.5972 15.9792 13.5832 15.9168 13.5833C15.822 13.5829 15.73 13.6153 15.6564 13.675C15.5703 13.7441 15.5151 13.8446 15.503 13.9544C15.4909 14.0641 15.5228 14.1742 15.5918 14.2604L16.1814 14.9979L16.4252 15.3021C16.4642 15.3507 16.5137 15.39 16.57 15.4171C16.6262 15.4441 16.6878 15.4582 16.7502 15.4583C16.8076 15.4583 16.8644 15.4462 16.9169 15.4229C16.9781 15.3951 17.0322 15.3538 17.0752 15.3021L17.9086 14.2604C17.9775 14.1742 18.0095 14.0641 17.9974 13.9544C17.9853 13.8446 17.9301 13.7441 17.844 13.675V13.675Z" fill="white" stroke="#2C2C2C" stroke-width="2" mask="url(#path-3-inside-1_83_1187)"/>
</g>
<defs>
<clipPath id="clip0_83_1187">
<rect width="24" height="20" fill="white" transform="translate(1 3)"/>
</clipPath>
<clipPath id="clip1_83_1187">
<rect width="10" height="10" fill="white" transform="translate(8 9)"/>
</clipPath>
</defs>
</svg>
