<svg width="28" height="28" viewBox="0 0 28 28" fill="none" xmlns="http://www.w3.org/2000/svg">
<g clip-path="url(#clip0_83_1261)">
<path d="M25.4911 22.3665L24.1694 12.5525C24.1693 12.5512 24.1691 12.5499 24.1689 12.5486C24.1047 12.0561 23.845 11.6107 23.4489 11.312L20.5752 9.08672L20.5717 9.08404L20.053 8.67872L20.0506 8.67688L19.4377 8.20088L19.4368 8.2002L15.1811 4.90304C15.1808 4.90282 15.1805 4.90261 15.1803 4.90239C15.1802 4.90233 15.1801 4.90227 15.18 4.90221C14.843 4.64074 14.4284 4.49933 14.0022 4.50003C13.5734 4.49748 13.1561 4.6396 12.818 4.90373C12.8172 4.90439 12.8163 4.90506 12.8155 4.90572L9.69259 7.32761L9.6923 7.32783L4.5509 11.3122C4.15489 11.6108 3.8952 12.0563 3.83104 12.5488C3.83087 12.55 3.83071 12.5513 3.83055 12.5525L2.50895 22.3665L2.35631 23.5H3.5H24.5H25.6437L25.4911 22.3665Z" fill="#EC6B4D" stroke="#2C2C2C" stroke-width="2"/>
<path d="M22.8427 12.1074L19.9595 9.8747L19.4373 9.4667L18.8243 8.9907L14.5676 5.69271C14.4054 5.56671 14.2055 5.49885 14 5.50005C13.7944 5.49796 13.5942 5.56592 13.4324 5.69271L10.3051 8.11804L5.1573 12.1074C4.97255 12.2449 4.85169 12.4515 4.82243 12.6797L3.5 22.5H24.5L23.1776 12.6797C23.1483 12.4515 23.0274 12.2449 22.8427 12.1074Z" fill="#EC6B4D"/>
<g clip-path="url(#clip1_83_1261)">
<mask id="path-3-inside-1_83_1261" fill="white">
<path d="M16.9378 16.6917L16.8983 16.6417C16.4841 17.3731 15.8093 17.9214 15.0085 18.1771C14.8877 18.2159 14.7645 18.2472 14.6398 18.2708H14.6377C14.477 18.3031 14.314 18.3226 14.1502 18.3292L14.2606 18.2417C14.3279 18.1877 14.3767 18.1142 14.4005 18.0312C14.4242 17.9483 14.4216 17.86 14.393 17.7786C14.3644 17.6972 14.3113 17.6267 14.2409 17.5768C14.1705 17.5269 14.0864 17.5001 14.0002 17.5C13.9054 17.4996 13.8133 17.5319 13.7397 17.5917L13.0022 18.1813L12.698 18.425C12.6493 18.4641 12.6101 18.5136 12.583 18.5698C12.556 18.626 12.5419 18.6876 12.5417 18.75C12.5418 18.8074 12.5539 18.8642 12.5771 18.9167C12.605 18.9779 12.6463 19.032 12.698 19.075L13.7397 19.9083C13.8133 19.9681 13.9054 20.0005 14.0002 20C14.0864 19.9999 14.1705 19.9731 14.2409 19.9232C14.3113 19.8733 14.3644 19.8028 14.393 19.7214C14.4216 19.64 14.4242 19.5517 14.4005 19.4688C14.3767 19.3859 14.3279 19.3123 14.2606 19.2583L14.1418 19.1625C14.2848 19.1602 14.4275 19.1484 14.5689 19.1271C14.6814 19.1125 14.794 19.0917 14.9044 19.0667C15.4694 18.9403 16.002 18.6979 16.4683 18.3546C16.9346 18.0114 17.3244 17.5749 17.6129 17.0729C17.3463 17.0401 17.1036 16.903 16.9378 16.6917ZM11.0623 13.3083L11.1018 13.3583C11.5159 12.6269 12.1908 12.0785 12.9915 11.8229C13.1124 11.7841 13.2356 11.7528 13.3603 11.7292H13.3624C13.5231 11.6969 13.6861 11.6774 13.8499 11.6708L13.7395 11.7583C13.6722 11.8123 13.6233 11.8859 13.5996 11.9688C13.5759 12.0517 13.5785 12.14 13.6071 12.2214C13.6357 12.3028 13.6888 12.3733 13.7592 12.4232C13.8296 12.4731 13.9137 12.4999 13.9999 12.5C14.0947 12.5005 14.1868 12.4681 14.2604 12.4083L14.9979 11.8188L15.3021 11.575C15.3508 11.5359 15.39 11.4865 15.4171 11.4302C15.4441 11.374 15.4582 11.3124 15.4584 11.25C15.4583 11.1926 15.4462 11.1358 15.4229 11.0833C15.3951 11.0221 15.3538 10.968 15.3021 10.925L14.2604 10.0917C14.1868 10.0319 14.0947 9.99955 13.9999 10C13.9137 10.0001 13.8296 10.0269 13.7592 10.0768C13.6888 10.1267 13.6357 10.1972 13.6071 10.2786C13.5785 10.36 13.5759 10.4483 13.5996 10.5312C13.6233 10.6142 13.6722 10.6877 13.7395 10.7417L13.8583 10.8375C13.7153 10.8398 13.5726 10.8516 13.4312 10.8729C13.3187 10.8875 13.2061 10.9083 13.0957 10.9333C12.5293 11.0597 11.9955 11.3029 11.5285 11.6473C11.0614 11.9917 10.6713 12.4297 10.3831 12.9333C10.6502 12.9635 10.8944 13.0984 11.0623 13.3083ZM10.8227 16.0083C10.7354 15.7299 10.6842 15.4415 10.6706 15.15L10.7581 15.2604C10.797 15.3093 10.8464 15.3487 10.9027 15.3757C10.959 15.4028 11.0206 15.4168 11.0831 15.4167C11.1779 15.4171 11.2699 15.3847 11.3435 15.325C11.4296 15.2559 11.4848 15.1554 11.4969 15.0457C11.509 14.9359 11.4771 14.8258 11.4081 14.7396L10.8185 14.0021L10.5747 13.6979C10.5349 13.6507 10.4851 13.6129 10.4289 13.5874C10.3727 13.5618 10.3115 13.549 10.2497 13.55C10.1918 13.5496 10.1344 13.5609 10.0809 13.5833C10.02 13.6076 9.9662 13.6471 9.92469 13.6979L9.0913 14.7396C9.02234 14.8258 8.99041 14.9359 9.00252 15.0457C9.01462 15.1554 9.06978 15.2559 9.15589 15.325C9.2295 15.3847 9.32153 15.4171 9.41632 15.4167C9.47877 15.4168 9.54043 15.4028 9.59671 15.3757C9.65299 15.3487 9.70243 15.3093 9.74134 15.2604L9.83718 15.1417C9.83951 15.2847 9.85134 15.4273 9.8726 15.5688C9.88719 15.6813 9.90802 15.7938 9.93302 15.9042C10.0594 16.4692 10.3019 17.0018 10.6451 17.468C10.9884 17.9343 11.4249 18.324 11.9269 18.6125C11.9598 18.346 12.0968 18.1033 12.3082 17.9375L12.3582 17.8979C11.6266 17.4839 11.0783 16.8091 10.8227 16.0083ZM18.844 14.675C18.7704 14.6153 18.6784 14.5829 18.5836 14.5833C18.5211 14.5832 18.4595 14.5972 18.4032 14.6243C18.3469 14.6513 18.2975 14.6908 18.2585 14.7396L18.1627 14.8583C18.1604 14.7153 18.1485 14.5727 18.1273 14.4313C18.1127 14.3188 18.0919 14.2063 18.0669 14.0958C17.9405 13.5308 17.698 12.9983 17.3548 12.532C17.0115 12.0657 16.575 11.676 16.073 11.3875C16.0401 11.6541 15.903 11.8967 15.6917 12.0625L15.6417 12.1021C16.3732 12.5161 16.9216 13.1909 17.1772 13.9917C17.2645 14.2701 17.3156 14.5586 17.3293 14.85L17.2418 14.7396C17.2029 14.6908 17.1535 14.6513 17.0972 14.6243C17.0409 14.5972 16.9792 14.5832 16.9168 14.5833C16.822 14.5829 16.73 14.6153 16.6564 14.675C16.5703 14.7441 16.5151 14.8446 16.503 14.9544C16.4909 15.0641 16.5228 15.1742 16.5918 15.2604L17.1814 15.9979L17.4252 16.3021C17.4642 16.3507 17.5137 16.39 17.57 16.4171C17.6262 16.4441 17.6878 16.4582 17.7502 16.4583C17.8076 16.4583 17.8644 16.4462 17.9169 16.4229C17.9781 16.3951 18.0322 16.3538 18.0752 16.3021L18.9086 15.2604C18.9775 15.1742 19.0095 15.0641 18.9974 14.9544C18.9853 14.8446 18.9301 14.7441 18.844 14.675Z"/>
</mask>
<path d="M16.9378 16.6917L16.8983 16.6417C16.4841 17.3731 15.8093 17.9214 15.0085 18.1771C14.8877 18.2159 14.7645 18.2472 14.6398 18.2708H14.6377C14.477 18.3031 14.314 18.3226 14.1502 18.3292L14.2606 18.2417C14.3279 18.1877 14.3767 18.1142 14.4005 18.0312C14.4242 17.9483 14.4216 17.86 14.393 17.7786C14.3644 17.6972 14.3113 17.6267 14.2409 17.5768C14.1705 17.5269 14.0864 17.5001 14.0002 17.5C13.9054 17.4996 13.8133 17.5319 13.7397 17.5917L13.0022 18.1813L12.698 18.425C12.6493 18.4641 12.6101 18.5136 12.583 18.5698C12.556 18.626 12.5419 18.6876 12.5417 18.75C12.5418 18.8074 12.5539 18.8642 12.5771 18.9167C12.605 18.9779 12.6463 19.032 12.698 19.075L13.7397 19.9083C13.8133 19.9681 13.9054 20.0005 14.0002 20C14.0864 19.9999 14.1705 19.9731 14.2409 19.9232C14.3113 19.8733 14.3644 19.8028 14.393 19.7214C14.4216 19.64 14.4242 19.5517 14.4005 19.4688C14.3767 19.3859 14.3279 19.3123 14.2606 19.2583L14.1418 19.1625C14.2848 19.1602 14.4275 19.1484 14.5689 19.1271C14.6814 19.1125 14.794 19.0917 14.9044 19.0667C15.4694 18.9403 16.002 18.6979 16.4683 18.3546C16.9346 18.0114 17.3244 17.5749 17.6129 17.0729C17.3463 17.0401 17.1036 16.903 16.9378 16.6917ZM11.0623 13.3083L11.1018 13.3583C11.5159 12.6269 12.1908 12.0785 12.9915 11.8229C13.1124 11.7841 13.2356 11.7528 13.3603 11.7292H13.3624C13.5231 11.6969 13.6861 11.6774 13.8499 11.6708L13.7395 11.7583C13.6722 11.8123 13.6233 11.8859 13.5996 11.9688C13.5759 12.0517 13.5785 12.14 13.6071 12.2214C13.6357 12.3028 13.6888 12.3733 13.7592 12.4232C13.8296 12.4731 13.9137 12.4999 13.9999 12.5C14.0947 12.5005 14.1868 12.4681 14.2604 12.4083L14.9979 11.8188L15.3021 11.575C15.3508 11.5359 15.39 11.4865 15.4171 11.4302C15.4441 11.374 15.4582 11.3124 15.4584 11.25C15.4583 11.1926 15.4462 11.1358 15.4229 11.0833C15.3951 11.0221 15.3538 10.968 15.3021 10.925L14.2604 10.0917C14.1868 10.0319 14.0947 9.99955 13.9999 10C13.9137 10.0001 13.8296 10.0269 13.7592 10.0768C13.6888 10.1267 13.6357 10.1972 13.6071 10.2786C13.5785 10.36 13.5759 10.4483 13.5996 10.5312C13.6233 10.6142 13.6722 10.6877 13.7395 10.7417L13.8583 10.8375C13.7153 10.8398 13.5726 10.8516 13.4312 10.8729C13.3187 10.8875 13.2061 10.9083 13.0957 10.9333C12.5293 11.0597 11.9955 11.3029 11.5285 11.6473C11.0614 11.9917 10.6713 12.4297 10.3831 12.9333C10.6502 12.9635 10.8944 13.0984 11.0623 13.3083ZM10.8227 16.0083C10.7354 15.7299 10.6842 15.4415 10.6706 15.15L10.7581 15.2604C10.797 15.3093 10.8464 15.3487 10.9027 15.3757C10.959 15.4028 11.0206 15.4168 11.0831 15.4167C11.1779 15.4171 11.2699 15.3847 11.3435 15.325C11.4296 15.2559 11.4848 15.1554 11.4969 15.0457C11.509 14.9359 11.4771 14.8258 11.4081 14.7396L10.8185 14.0021L10.5747 13.6979C10.5349 13.6507 10.4851 13.6129 10.4289 13.5874C10.3727 13.5618 10.3115 13.549 10.2497 13.55C10.1918 13.5496 10.1344 13.5609 10.0809 13.5833C10.02 13.6076 9.9662 13.6471 9.92469 13.6979L9.0913 14.7396C9.02234 14.8258 8.99041 14.9359 9.00252 15.0457C9.01462 15.1554 9.06978 15.2559 9.15589 15.325C9.2295 15.3847 9.32153 15.4171 9.41632 15.4167C9.47877 15.4168 9.54043 15.4028 9.59671 15.3757C9.65299 15.3487 9.70243 15.3093 9.74134 15.2604L9.83718 15.1417C9.83951 15.2847 9.85134 15.4273 9.8726 15.5688C9.88719 15.6813 9.90802 15.7938 9.93302 15.9042C10.0594 16.4692 10.3019 17.0018 10.6451 17.468C10.9884 17.9343 11.4249 18.324 11.9269 18.6125C11.9598 18.346 12.0968 18.1033 12.3082 17.9375L12.3582 17.8979C11.6266 17.4839 11.0783 16.8091 10.8227 16.0083ZM18.844 14.675C18.7704 14.6153 18.6784 14.5829 18.5836 14.5833C18.5211 14.5832 18.4595 14.5972 18.4032 14.6243C18.3469 14.6513 18.2975 14.6908 18.2585 14.7396L18.1627 14.8583C18.1604 14.7153 18.1485 14.5727 18.1273 14.4313C18.1127 14.3188 18.0919 14.2063 18.0669 14.0958C17.9405 13.5308 17.698 12.9983 17.3548 12.532C17.0115 12.0657 16.575 11.676 16.073 11.3875C16.0401 11.6541 15.903 11.8967 15.6917 12.0625L15.6417 12.1021C16.3732 12.5161 16.9216 13.1909 17.1772 13.9917C17.2645 14.2701 17.3156 14.5586 17.3293 14.85L17.2418 14.7396C17.2029 14.6908 17.1535 14.6513 17.0972 14.6243C17.0409 14.5972 16.9792 14.5832 16.9168 14.5833C16.822 14.5829 16.73 14.6153 16.6564 14.675C16.5703 14.7441 16.5151 14.8446 16.503 14.9544C16.4909 15.0641 16.5228 15.1742 16.5918 15.2604L17.1814 15.9979L17.4252 16.3021C17.4642 16.3507 17.5137 16.39 17.57 16.4171C17.6262 16.4441 17.6878 16.4582 17.7502 16.4583C17.8076 16.4583 17.8644 16.4462 17.9169 16.4229C17.9781 16.3951 18.0322 16.3538 18.0752 16.3021L18.9086 15.2604C18.9775 15.1742 19.0095 15.0641 18.9974 14.9544C18.9853 14.8446 18.9301 14.7441 18.844 14.675Z" fill="white" stroke="#2C2C2C" stroke-width="2" mask="url(#path-3-inside-1_83_1261)"/>
</g>
<g clip-path="url(#clip2_83_1261)">
<path d="M19.7451 9.07271L19.744 9.07179L19.131 8.59579L19.1306 8.59545L14.8743 5.29788C14.8743 5.29783 14.8742 5.29779 14.8742 5.29774C14.6245 5.10383 14.3171 4.99909 14.0011 5.00004C13.6838 4.99772 13.375 5.1028 13.1251 5.29833C13.1247 5.29862 13.1243 5.29892 13.124 5.29922L9.99886 7.72282L9.99872 7.72293L4.85441 11.7095C4.56382 11.9277 4.37342 12.2538 4.32672 12.6144C4.32664 12.6149 4.32657 12.6155 4.32649 12.6161L3.00447 22.4333L2.92816 23H3.5H24.5H25.0718L24.9955 22.4333L23.6735 12.6161C23.6734 12.6156 23.6734 12.615 23.6733 12.6145C23.6266 12.2539 23.4362 11.9277 23.1455 11.7095L20.2673 9.48071L20.2656 9.47937L19.7451 9.07271Z" fill="#EC6B4D" stroke="white"/>
<path d="M22.8427 12.1074L19.9595 9.8747L19.4373 9.4667L18.8243 8.9907L14.5676 5.69271C14.4054 5.56671 14.2055 5.49885 14 5.50005C13.7944 5.49796 13.5942 5.56592 13.4324 5.69271L10.3051 8.11804L5.1573 12.1074C4.97255 12.2449 4.85169 12.4515 4.82243 12.6797L3.5 22.5H24.5L23.1776 12.6797C23.1483 12.4515 23.0274 12.2449 22.8427 12.1074Z" fill="#EC6B4D"/>
</g>
<g clip-path="url(#clip3_83_1261)">
<mask id="path-6-inside-2_83_1261" fill="white">
<path d="M16.9378 16.6917L16.8983 16.6417C16.4841 17.3731 15.8093 17.9214 15.0085 18.1771C14.8877 18.2159 14.7645 18.2472 14.6398 18.2708H14.6377C14.477 18.3031 14.314 18.3226 14.1502 18.3292L14.2606 18.2417C14.3279 18.1877 14.3767 18.1142 14.4005 18.0312C14.4242 17.9483 14.4216 17.86 14.393 17.7786C14.3644 17.6972 14.3113 17.6267 14.2409 17.5768C14.1705 17.5269 14.0864 17.5001 14.0002 17.5C13.9054 17.4996 13.8133 17.5319 13.7397 17.5917L13.0022 18.1813L12.698 18.425C12.6493 18.4641 12.6101 18.5136 12.583 18.5698C12.556 18.626 12.5419 18.6876 12.5417 18.75C12.5418 18.8074 12.5539 18.8642 12.5771 18.9167C12.605 18.9779 12.6463 19.032 12.698 19.075L13.7397 19.9083C13.8133 19.9681 13.9054 20.0005 14.0002 20C14.0864 19.9999 14.1705 19.9731 14.2409 19.9232C14.3113 19.8733 14.3644 19.8028 14.393 19.7214C14.4216 19.64 14.4242 19.5517 14.4005 19.4688C14.3767 19.3859 14.3279 19.3123 14.2606 19.2583L14.1418 19.1625C14.2848 19.1602 14.4275 19.1484 14.5689 19.1271C14.6814 19.1125 14.794 19.0917 14.9044 19.0667C15.4694 18.9403 16.002 18.6979 16.4683 18.3546C16.9346 18.0114 17.3244 17.5749 17.6129 17.0729C17.3463 17.0401 17.1036 16.903 16.9378 16.6917ZM11.0623 13.3083L11.1018 13.3583C11.5159 12.6269 12.1908 12.0785 12.9915 11.8229C13.1124 11.7841 13.2356 11.7528 13.3603 11.7292H13.3624C13.5231 11.6969 13.6861 11.6774 13.8499 11.6708L13.7395 11.7583C13.6722 11.8123 13.6233 11.8859 13.5996 11.9688C13.5759 12.0517 13.5785 12.14 13.6071 12.2214C13.6357 12.3028 13.6888 12.3733 13.7592 12.4232C13.8296 12.4731 13.9137 12.4999 13.9999 12.5C14.0947 12.5005 14.1868 12.4681 14.2604 12.4083L14.9979 11.8188L15.3021 11.575C15.3508 11.5359 15.39 11.4865 15.4171 11.4302C15.4441 11.374 15.4582 11.3124 15.4584 11.25C15.4583 11.1926 15.4462 11.1358 15.4229 11.0833C15.3951 11.0221 15.3538 10.968 15.3021 10.925L14.2604 10.0917C14.1868 10.0319 14.0947 9.99955 13.9999 10C13.9137 10.0001 13.8296 10.0269 13.7592 10.0768C13.6888 10.1267 13.6357 10.1972 13.6071 10.2786C13.5785 10.36 13.5759 10.4483 13.5996 10.5312C13.6233 10.6142 13.6722 10.6877 13.7395 10.7417L13.8583 10.8375C13.7153 10.8398 13.5726 10.8516 13.4312 10.8729C13.3187 10.8875 13.2061 10.9083 13.0957 10.9333C12.5293 11.0597 11.9955 11.3029 11.5285 11.6473C11.0614 11.9917 10.6713 12.4297 10.3831 12.9333C10.6502 12.9635 10.8944 13.0984 11.0623 13.3083ZM10.8227 16.0083C10.7354 15.7299 10.6842 15.4415 10.6706 15.15L10.7581 15.2604C10.797 15.3093 10.8464 15.3487 10.9027 15.3757C10.959 15.4028 11.0206 15.4168 11.0831 15.4167C11.1779 15.4171 11.2699 15.3847 11.3435 15.325C11.4296 15.2559 11.4848 15.1554 11.4969 15.0457C11.509 14.9359 11.4771 14.8258 11.4081 14.7396L10.8185 14.0021L10.5747 13.6979C10.5349 13.6507 10.4851 13.6129 10.4289 13.5874C10.3727 13.5618 10.3115 13.549 10.2497 13.55C10.1918 13.5496 10.1344 13.5609 10.0809 13.5833C10.02 13.6076 9.9662 13.6471 9.92469 13.6979L9.0913 14.7396C9.02234 14.8258 8.99041 14.9359 9.00252 15.0457C9.01462 15.1554 9.06978 15.2559 9.15589 15.325C9.2295 15.3847 9.32153 15.4171 9.41632 15.4167C9.47877 15.4168 9.54043 15.4028 9.59671 15.3757C9.65299 15.3487 9.70243 15.3093 9.74134 15.2604L9.83718 15.1417C9.83951 15.2847 9.85134 15.4273 9.8726 15.5688C9.88719 15.6813 9.90802 15.7938 9.93302 15.9042C10.0594 16.4692 10.3019 17.0018 10.6451 17.468C10.9884 17.9343 11.4249 18.324 11.9269 18.6125C11.9598 18.346 12.0968 18.1033 12.3082 17.9375L12.3582 17.8979C11.6266 17.4839 11.0783 16.8091 10.8227 16.0083ZM18.844 14.675C18.7704 14.6153 18.6784 14.5829 18.5836 14.5833C18.5211 14.5832 18.4595 14.5972 18.4032 14.6243C18.3469 14.6513 18.2975 14.6908 18.2585 14.7396L18.1627 14.8583C18.1604 14.7153 18.1485 14.5727 18.1273 14.4313C18.1127 14.3188 18.0919 14.2063 18.0669 14.0958C17.9405 13.5308 17.698 12.9983 17.3548 12.532C17.0115 12.0657 16.575 11.676 16.073 11.3875C16.0401 11.6541 15.903 11.8967 15.6917 12.0625L15.6417 12.1021C16.3732 12.5161 16.9216 13.1909 17.1772 13.9917C17.2645 14.2701 17.3156 14.5586 17.3293 14.85L17.2418 14.7396C17.2029 14.6908 17.1535 14.6513 17.0972 14.6243C17.0409 14.5972 16.9792 14.5832 16.9168 14.5833C16.822 14.5829 16.73 14.6153 16.6564 14.675C16.5703 14.7441 16.5151 14.8446 16.503 14.9544C16.4909 15.0641 16.5228 15.1742 16.5918 15.2604L17.1814 15.9979L17.4252 16.3021C17.4642 16.3507 17.5137 16.39 17.57 16.4171C17.6262 16.4441 17.6878 16.4582 17.7502 16.4583C17.8076 16.4583 17.8644 16.4462 17.9169 16.4229C17.9781 16.3951 18.0322 16.3538 18.0752 16.3021L18.9086 15.2604C18.9775 15.1742 19.0095 15.0641 18.9974 14.9544C18.9853 14.8446 18.9301 14.7441 18.844 14.675Z"/>
</mask>
<path d="M16.9378 16.6917L16.8983 16.6417C16.4841 17.3731 15.8093 17.9214 15.0085 18.1771C14.8877 18.2159 14.7645 18.2472 14.6398 18.2708H14.6377C14.477 18.3031 14.314 18.3226 14.1502 18.3292L14.2606 18.2417C14.3279 18.1877 14.3767 18.1142 14.4005 18.0312C14.4242 17.9483 14.4216 17.86 14.393 17.7786C14.3644 17.6972 14.3113 17.6267 14.2409 17.5768C14.1705 17.5269 14.0864 17.5001 14.0002 17.5C13.9054 17.4996 13.8133 17.5319 13.7397 17.5917L13.0022 18.1813L12.698 18.425C12.6493 18.4641 12.6101 18.5136 12.583 18.5698C12.556 18.626 12.5419 18.6876 12.5417 18.75C12.5418 18.8074 12.5539 18.8642 12.5771 18.9167C12.605 18.9779 12.6463 19.032 12.698 19.075L13.7397 19.9083C13.8133 19.9681 13.9054 20.0005 14.0002 20C14.0864 19.9999 14.1705 19.9731 14.2409 19.9232C14.3113 19.8733 14.3644 19.8028 14.393 19.7214C14.4216 19.64 14.4242 19.5517 14.4005 19.4688C14.3767 19.3859 14.3279 19.3123 14.2606 19.2583L14.1418 19.1625C14.2848 19.1602 14.4275 19.1484 14.5689 19.1271C14.6814 19.1125 14.794 19.0917 14.9044 19.0667C15.4694 18.9403 16.002 18.6979 16.4683 18.3546C16.9346 18.0114 17.3244 17.5749 17.6129 17.0729C17.3463 17.0401 17.1036 16.903 16.9378 16.6917ZM11.0623 13.3083L11.1018 13.3583C11.5159 12.6269 12.1908 12.0785 12.9915 11.8229C13.1124 11.7841 13.2356 11.7528 13.3603 11.7292H13.3624C13.5231 11.6969 13.6861 11.6774 13.8499 11.6708L13.7395 11.7583C13.6722 11.8123 13.6233 11.8859 13.5996 11.9688C13.5759 12.0517 13.5785 12.14 13.6071 12.2214C13.6357 12.3028 13.6888 12.3733 13.7592 12.4232C13.8296 12.4731 13.9137 12.4999 13.9999 12.5C14.0947 12.5005 14.1868 12.4681 14.2604 12.4083L14.9979 11.8188L15.3021 11.575C15.3508 11.5359 15.39 11.4865 15.4171 11.4302C15.4441 11.374 15.4582 11.3124 15.4584 11.25C15.4583 11.1926 15.4462 11.1358 15.4229 11.0833C15.3951 11.0221 15.3538 10.968 15.3021 10.925L14.2604 10.0917C14.1868 10.0319 14.0947 9.99955 13.9999 10C13.9137 10.0001 13.8296 10.0269 13.7592 10.0768C13.6888 10.1267 13.6357 10.1972 13.6071 10.2786C13.5785 10.36 13.5759 10.4483 13.5996 10.5312C13.6233 10.6142 13.6722 10.6877 13.7395 10.7417L13.8583 10.8375C13.7153 10.8398 13.5726 10.8516 13.4312 10.8729C13.3187 10.8875 13.2061 10.9083 13.0957 10.9333C12.5293 11.0597 11.9955 11.3029 11.5285 11.6473C11.0614 11.9917 10.6713 12.4297 10.3831 12.9333C10.6502 12.9635 10.8944 13.0984 11.0623 13.3083ZM10.8227 16.0083C10.7354 15.7299 10.6842 15.4415 10.6706 15.15L10.7581 15.2604C10.797 15.3093 10.8464 15.3487 10.9027 15.3757C10.959 15.4028 11.0206 15.4168 11.0831 15.4167C11.1779 15.4171 11.2699 15.3847 11.3435 15.325C11.4296 15.2559 11.4848 15.1554 11.4969 15.0457C11.509 14.9359 11.4771 14.8258 11.4081 14.7396L10.8185 14.0021L10.5747 13.6979C10.5349 13.6507 10.4851 13.6129 10.4289 13.5874C10.3727 13.5618 10.3115 13.549 10.2497 13.55C10.1918 13.5496 10.1344 13.5609 10.0809 13.5833C10.02 13.6076 9.9662 13.6471 9.92469 13.6979L9.0913 14.7396C9.02234 14.8258 8.99041 14.9359 9.00252 15.0457C9.01462 15.1554 9.06978 15.2559 9.15589 15.325C9.2295 15.3847 9.32153 15.4171 9.41632 15.4167C9.47877 15.4168 9.54043 15.4028 9.59671 15.3757C9.65299 15.3487 9.70243 15.3093 9.74134 15.2604L9.83718 15.1417C9.83951 15.2847 9.85134 15.4273 9.8726 15.5688C9.88719 15.6813 9.90802 15.7938 9.93302 15.9042C10.0594 16.4692 10.3019 17.0018 10.6451 17.468C10.9884 17.9343 11.4249 18.324 11.9269 18.6125C11.9598 18.346 12.0968 18.1033 12.3082 17.9375L12.3582 17.8979C11.6266 17.4839 11.0783 16.8091 10.8227 16.0083ZM18.844 14.675C18.7704 14.6153 18.6784 14.5829 18.5836 14.5833C18.5211 14.5832 18.4595 14.5972 18.4032 14.6243C18.3469 14.6513 18.2975 14.6908 18.2585 14.7396L18.1627 14.8583C18.1604 14.7153 18.1485 14.5727 18.1273 14.4313C18.1127 14.3188 18.0919 14.2063 18.0669 14.0958C17.9405 13.5308 17.698 12.9983 17.3548 12.532C17.0115 12.0657 16.575 11.676 16.073 11.3875C16.0401 11.6541 15.903 11.8967 15.6917 12.0625L15.6417 12.1021C16.3732 12.5161 16.9216 13.1909 17.1772 13.9917C17.2645 14.2701 17.3156 14.5586 17.3293 14.85L17.2418 14.7396C17.2029 14.6908 17.1535 14.6513 17.0972 14.6243C17.0409 14.5972 16.9792 14.5832 16.9168 14.5833C16.822 14.5829 16.73 14.6153 16.6564 14.675C16.5703 14.7441 16.5151 14.8446 16.503 14.9544C16.4909 15.0641 16.5228 15.1742 16.5918 15.2604L17.1814 15.9979L17.4252 16.3021C17.4642 16.3507 17.5137 16.39 17.57 16.4171C17.6262 16.4441 17.6878 16.4582 17.7502 16.4583C17.8076 16.4583 17.8644 16.4462 17.9169 16.4229C17.9781 16.3951 18.0322 16.3538 18.0752 16.3021L18.9086 15.2604C18.9775 15.1742 19.0095 15.0641 18.9974 14.9544C18.9853 14.8446 18.9301 14.7441 18.844 14.675Z" fill="white" stroke="#2C2C2C" stroke-width="2" mask="url(#path-6-inside-2_83_1261)"/>
</g>
</g>
<defs>
<clipPath id="clip0_83_1261">
<rect width="28" height="28" fill="white"/>
</clipPath>
<clipPath id="clip1_83_1261">
<rect width="10" height="10" fill="white" transform="translate(9 10)"/>
</clipPath>
<clipPath id="clip2_83_1261">
<rect width="24" height="20" fill="white" transform="translate(2 4)"/>
</clipPath>
<clipPath id="clip3_83_1261">
<rect width="10" height="10" fill="white" transform="translate(9 10)"/>
</clipPath>
</defs>
</svg>
