<svg width="28" height="28" viewBox="0 0 28 28" fill="none" xmlns="http://www.w3.org/2000/svg">
<path d="M14.7162 22.5V20.2175L16.2466 22.984L16.532 23.5H17.1216H24.5H25.6437L25.4911 22.3665L24.1694 12.5525C24.1693 12.5512 24.1691 12.5499 24.1689 12.5486C24.1047 12.0561 23.845 11.6107 23.4489 11.312L20.5752 9.08672L20.5717 9.08404L20.053 8.67872L20.0506 8.67688L19.4377 8.20088L19.4368 8.2002L15.1811 4.90304C15.1808 4.90282 15.1805 4.90261 15.1803 4.90239C15.1802 4.90233 15.1801 4.90227 15.18 4.90221C14.843 4.64074 14.4284 4.49933 14.0022 4.50003C13.5734 4.49748 13.1561 4.6396 12.818 4.90373C12.8172 4.90439 12.8163 4.90506 12.8155 4.90572L9.69259 7.32761L9.6923 7.32783L4.5509 11.3122C4.15489 11.6108 3.8952 12.0563 3.83104 12.5488C3.83087 12.55 3.83071 12.5513 3.83055 12.5525L2.50895 22.3665L2.35631 23.5H3.5H13.7162H14.7162V22.5Z" fill="#EC6B4D" stroke="#2C2C2C" stroke-width="2"/>
<path d="M19.7451 9.07271L19.744 9.07179L19.131 8.59579L19.1306 8.59545L14.8743 5.29788C14.8743 5.29783 14.8742 5.29779 14.8742 5.29774C14.6245 5.10383 14.3171 4.99909 14.0011 5.00004C13.6838 4.99772 13.375 5.1028 13.1251 5.29833C13.1247 5.29862 13.1243 5.29892 13.124 5.29922L9.99886 7.72282L9.99872 7.72293L4.85441 11.7095C4.56382 11.9277 4.37342 12.2538 4.32672 12.6144C4.32664 12.6149 4.32657 12.6155 4.32649 12.6161L3.00447 22.4333L2.92816 23H3.5H13.7162H14.2162V22.5V18.2806L16.6841 22.742L16.8268 23H17.1216H24.5H25.0718L24.9955 22.4333L23.6735 12.6161C23.6734 12.6156 23.6734 12.615 23.6733 12.6145C23.6266 12.2539 23.4362 11.9277 23.1455 11.7095L20.2673 9.48071L20.2656 9.47937L19.7451 9.07271Z" fill="#EC6B4D" stroke="white"/>
<path fill-rule="evenodd" clip-rule="evenodd" d="M21 12C21.9889 12 22.9556 11.7068 23.7778 11.1573C24.6001 10.6079 25.241 9.82705 25.6194 8.91342C25.9978 7.99979 26.0969 6.99445 25.9039 6.02455C25.711 5.05465 25.2348 4.16373 24.5355 3.46447C23.8363 2.76521 22.9454 2.289 21.9754 2.09608C21.0055 1.90315 20.0002 2.00217 19.0866 2.3806C18.173 2.75904 17.3921 3.3999 16.8427 4.22215C16.2932 5.0444 16 6.0111 16 7C16.0005 8.32592 16.5275 9.59738 17.4651 10.5349C18.4026 11.4725 19.6741 11.9995 21 12ZM18.5 6.49876C18.367 6.49876 18.2394 6.55133 18.145 6.645C18.0513 6.73941 17.9988 6.86701 17.9988 7C17.9988 7.13299 18.0513 7.2606 18.145 7.355L19.645 8.855C19.7401 8.9475 19.8674 8.99948 20 9C20.1191 8.9997 20.2343 8.95719 20.325 8.88L23.825 5.88C23.8749 5.83732 23.9159 5.78523 23.9457 5.7267C23.9754 5.66818 23.9934 5.60436 23.9985 5.53889C24.0036 5.47343 23.9958 5.4076 23.9754 5.34516C23.9551 5.28272 23.9227 5.2249 23.88 5.175C23.8373 5.1251 23.7852 5.08409 23.7267 5.05432C23.6682 5.02455 23.6044 5.0066 23.5389 5.00149C23.4067 4.99118 23.2758 5.03381 23.175 5.12L20.025 7.82L18.855 6.645C18.7606 6.55133 18.633 6.49876 18.5 6.49876Z" fill="#2C2C2C"/>
<path d="M18.145 6.645C18.2394 6.55133 18.367 6.49876 18.5 6.49876C18.633 6.49876 18.7606 6.55133 18.855 6.645L20.025 7.82L23.175 5.12C23.2758 5.03381 23.4067 4.99118 23.5389 5.00149C23.6044 5.0066 23.6682 5.02455 23.7267 5.05432C23.7852 5.08409 23.8373 5.1251 23.88 5.175C23.9227 5.2249 23.9551 5.28272 23.9754 5.34516C23.9958 5.4076 24.0036 5.47343 23.9985 5.53889C23.9934 5.60436 23.9754 5.66818 23.9457 5.7267C23.9159 5.78523 23.8749 5.83732 23.825 5.88L20.325 8.88C20.2343 8.95719 20.1191 8.9997 20 9C19.8674 8.99948 19.7401 8.9475 19.645 8.855L18.145 7.355C18.0513 7.2606 17.9988 7.13299 17.9988 7C17.9988 6.86701 18.0513 6.73941 18.145 6.645Z" fill="white"/>
</svg>
