<svg width="26" height="26" viewBox="0 0 26 26" fill="none" xmlns="http://www.w3.org/2000/svg">
<path d="M18.7451 8.07271L18.744 8.07179L18.131 7.59579L18.1306 7.59545L13.8743 4.29788C13.8743 4.29783 13.8742 4.29779 13.8742 4.29774C13.6245 4.10383 13.3171 3.99909 13.0011 4.00004C12.6838 3.99772 12.375 4.1028 12.1251 4.29833C12.1247 4.29862 12.1243 4.29892 12.124 4.29922L8.99886 6.72282L8.99872 6.72293L3.85441 10.7095C3.56382 10.9277 3.37342 11.2538 3.32672 11.6144C3.32664 11.6149 3.32657 11.6155 3.32649 11.6161L2.00447 21.4333L1.92816 22H2.5H12.7162H13.2162V21.5V17.2806L15.6841 21.742L15.8268 22H16.1216H23.5H24.0718L23.9955 21.4333L22.6735 11.6161C22.6734 11.6156 22.6734 11.615 22.6733 11.6145C22.6266 11.2539 22.4362 10.9277 22.1455 10.7095L19.2673 8.48071L19.2656 8.47937L18.7451 8.07271Z" fill="#EC6B4D" stroke="white"/>
<path d="M21.8427 11.1074L18.9595 8.8747L18.4373 8.4667L17.8243 7.9907L13.5676 4.69271C13.4054 4.56671 13.2055 4.49885 13 4.50005C12.7944 4.49796 12.5942 4.56592 12.4324 4.69271L9.30514 7.11804L4.1573 11.1074C3.97255 11.2449 3.85169 11.4515 3.82243 11.6797L2.5 21.5H12.7162V15.9977C12.7165 15.9532 12.7347 15.9107 12.7668 15.8798C12.7988 15.8489 12.8419 15.8321 12.8865 15.8333C12.9473 15.8335 13.0034 15.8659 13.0341 15.9183L16.1216 21.5H23.5L22.1776 11.6797C22.1483 11.4515 22.0274 11.2449 21.8427 11.1074Z" fill="#EC6B4D"/>
<path fill-rule="evenodd" clip-rule="evenodd" d="M20 11C20.9889 11 21.9556 10.7068 22.7778 10.1573C23.6001 9.60794 24.241 8.82705 24.6194 7.91342C24.9978 6.99979 25.0969 5.99445 24.9039 5.02455C24.711 4.05465 24.2348 3.16373 23.5355 2.46447C22.8363 1.76521 21.9454 1.289 20.9754 1.09608C20.0055 0.90315 19.0002 1.00217 18.0866 1.3806C17.173 1.75904 16.3921 2.3999 15.8427 3.22215C15.2932 4.0444 15 5.0111 15 6C15.0005 7.32592 15.5275 8.59738 16.4651 9.53495C17.4026 10.4725 18.6741 10.9995 20 11ZM17.5 5.49876C17.367 5.49876 17.2394 5.55133 17.145 5.645C17.0513 5.73941 16.9988 5.86701 16.9988 6C16.9988 6.13299 17.0513 6.2606 17.145 6.355L18.645 7.855C18.7401 7.9475 18.8674 7.99948 19 8C19.1191 7.9997 19.2343 7.95719 19.325 7.88L22.825 4.88C22.8749 4.83732 22.9159 4.78523 22.9457 4.7267C22.9754 4.66818 22.9934 4.60436 22.9985 4.53889C23.0036 4.47343 22.9958 4.4076 22.9754 4.34516C22.9551 4.28272 22.9227 4.2249 22.88 4.175C22.8373 4.1251 22.7852 4.08409 22.7267 4.05432C22.6682 4.02455 22.6044 4.0066 22.5389 4.00149C22.4067 3.99118 22.2758 4.03381 22.175 4.12L19.025 6.82L17.855 5.645C17.7606 5.55133 17.633 5.49876 17.5 5.49876Z" fill="#2C2C2C"/>
<path d="M17.145 5.645C17.2394 5.55133 17.367 5.49876 17.5 5.49876C17.633 5.49876 17.7606 5.55133 17.855 5.645L19.025 6.82L22.175 4.12C22.2758 4.03381 22.4067 3.99118 22.5389 4.00149C22.6044 4.0066 22.6682 4.02455 22.7267 4.05432C22.7852 4.08409 22.8373 4.1251 22.88 4.175C22.9227 4.2249 22.9551 4.28272 22.9754 4.34516C22.9958 4.4076 23.0036 4.47343 22.9985 4.53889C22.9934 4.60436 22.9754 4.66818 22.9457 4.7267C22.9159 4.78523 22.8749 4.83732 22.825 4.88L19.325 7.88C19.2343 7.95719 19.1191 7.9997 19 8C18.8674 7.99948 18.7401 7.9475 18.645 7.855L17.145 6.355C17.0513 6.2606 16.9988 6.13299 16.9988 6C16.9988 5.86701 17.0513 5.73941 17.145 5.645Z" fill="white"/>
</svg>
