<svg width="26" height="26" viewBox="0 0 26 26" fill="none" xmlns="http://www.w3.org/2000/svg">
<path d="M24.2433 21.3999L22.9215 11.5843C22.9214 11.5834 22.9212 11.5825 22.9211 11.5816C22.8657 11.155 22.6406 10.7691 22.2971 10.5107L19.4212 8.28372L19.4186 8.28171L18.8991 7.87571L18.8973 7.87433L18.2843 7.39833L18.2837 7.39783L14.0277 4.10046C14.0276 4.10034 14.0274 4.10021 14.0272 4.10008C13.7339 3.87232 13.3728 3.74921 13.0016 3.75004C12.6286 3.7476 12.2655 3.87124 11.9714 4.10114C11.9708 4.10158 11.9703 4.10202 11.9697 4.10247L8.84572 6.52521L8.84551 6.52538L3.70272 10.5108C3.35938 10.7692 3.13431 11.1551 3.07887 11.5816C3.07876 11.5825 3.07864 11.5834 3.07852 11.5843L1.75671 21.3999L1.64223 22.25H2.5H23.5H24.3578L24.2433 21.3999Z" fill="white" stroke="#2C2C2C" stroke-width="1.5"/>
<path d="M21.8427 11.1074L18.9595 8.8747L18.4373 8.4667L17.8243 7.9907L13.5676 4.69271C13.4054 4.56671 13.2055 4.49885 13 4.50005C12.7944 4.49796 12.5942 4.56592 12.4324 4.69271L9.30514 7.11804L4.1573 11.1074C3.97255 11.2449 3.85169 11.4515 3.82243 11.6797L2.5 21.5H23.5L22.1776 11.6797C22.1483 11.4515 22.0274 11.2449 21.8427 11.1074Z" fill="white"/>
<path fill-rule="evenodd" clip-rule="evenodd" d="M20.726 12.1398L18.0359 10.0567L17.5173 9.65144L17.5137 9.64867L13.0002 6.15064L5.27403 12.1396L4.21553 20H21.7845L20.726 12.1398ZM23.5 21.5H2.5L3.82243 11.6797C3.85169 11.4515 3.97255 11.2449 4.1573 11.1074L12.4324 4.69271C12.5942 4.56592 12.7944 4.49796 13 4.50005C13.2055 4.49885 13.4054 4.56671 13.5676 4.69271L17.8243 7.9907L18.4373 8.4667L18.9595 8.8747L21.8427 11.1074C22.0274 11.2449 22.1483 11.4515 22.1776 11.6797L23.5 21.5Z" fill="#EC6B4D"/>
<path fill-rule="evenodd" clip-rule="evenodd" d="M13.4419 10.9331C13.1979 10.689 12.8021 10.689 12.5581 10.9331L10.3914 13.0997C10.1473 13.3438 10.1473 13.7395 10.3914 13.9836C10.6355 14.2277 11.0312 14.2277 11.2753 13.9836L12.375 12.8839L12.375 17.875C12.375 18.2202 12.6548 18.5 13 18.5C13.3452 18.5 13.625 18.2202 13.625 17.875L13.625 12.8839L14.7247 13.9836C14.9688 14.2277 15.3645 14.2277 15.6086 13.9836C15.8527 13.7395 15.8527 13.3438 15.6086 13.0997L13.4419 10.9331Z" fill="#2C2C2C"/>
</svg>
