<svg width="28" height="28" viewBox="0 0 28 28" fill="none" xmlns="http://www.w3.org/2000/svg">
<path d="M19.7451 9.07271L19.744 9.07179L19.131 8.59579L19.1306 8.59545L14.8743 5.29788C14.8743 5.29783 14.8742 5.29779 14.8742 5.29774C14.6245 5.10383 14.3171 4.99909 14.0011 5.00004C13.6838 4.99772 13.375 5.1028 13.1251 5.29833C13.1247 5.29862 13.1243 5.29892 13.124 5.29922L9.99886 7.72282L9.99872 7.72293L4.85441 11.7095C4.56382 11.9277 4.37342 12.2538 4.32672 12.6144C4.32664 12.6149 4.32657 12.6155 4.32649 12.6161L3.00447 22.4333L2.92816 23H3.5H24.5H25.0718L24.9955 22.4333L23.6735 12.6161C23.6734 12.6156 23.6734 12.615 23.6733 12.6145C23.6266 12.2539 23.4362 11.9277 23.1455 11.7095L20.2673 9.48071L20.2656 9.47937L19.7451 9.07271Z" fill="white" stroke="white"/>
<path d="M22.8427 12.1074L19.9595 9.8747L19.4373 9.4667L18.8243 8.9907L14.5676 5.69271C14.4054 5.56671 14.2055 5.49885 14 5.50005C13.7944 5.49796 13.5942 5.56592 13.4324 5.69271L10.3051 8.11804L5.1573 12.1074C4.97255 12.2449 4.85169 12.4515 4.82243 12.6797L3.5 22.5H24.5L23.1776 12.6797C23.1483 12.4515 23.0274 12.2449 22.8427 12.1074Z" fill="white"/>
<path fill-rule="evenodd" clip-rule="evenodd" d="M21.726 13.1398L19.0359 11.0567L18.5173 10.6514L18.5137 10.6487L14.0002 7.15064L6.27403 13.1396L5.21553 21H22.7845L21.726 13.1398ZM24.5 22.5H3.5L4.82243 12.6797C4.85169 12.4515 4.97255 12.2449 5.1573 12.1074L13.4324 5.69271C13.5942 5.56592 13.7944 5.49796 14 5.50005C14.2055 5.49885 14.4054 5.56671 14.5676 5.69271L18.8243 8.9907L19.4373 9.4667L19.9595 9.8747L22.8427 12.1074C23.0274 12.2449 23.1483 12.4515 23.1776 12.6797L24.5 22.5Z" fill="#EC6B4D"/>
<path fill-rule="evenodd" clip-rule="evenodd" d="M14.4419 11.8081C14.1979 11.564 13.8021 11.564 13.5581 11.8081L11.2247 14.1414C10.9807 14.3855 10.9807 14.7812 11.2247 15.0253C11.4688 15.2694 11.8645 15.2694 12.1086 15.0253L13.375 13.7589L13.375 19.25C13.375 19.5952 13.6548 19.875 14 19.875C14.3452 19.875 14.625 19.5952 14.625 19.25L14.625 13.7589L15.8914 15.0253C16.1355 15.2694 16.5312 15.2694 16.7753 15.0253C17.0194 14.7812 17.0194 14.3855 16.7753 14.1414L14.4419 11.8081Z" fill="#2C2C2C"/>
</svg>
