<svg width="26" height="26" viewBox="0 0 26 26" fill="none" xmlns="http://www.w3.org/2000/svg">
<path d="M18.7451 8.07271L18.744 8.07179L18.131 7.59579L18.1306 7.59545L13.8743 4.29788C13.8743 4.29783 13.8742 4.29779 13.8742 4.29774C13.6245 4.10383 13.3171 3.99909 13.0011 4.00004C12.6838 3.99772 12.375 4.1028 12.1251 4.29833C12.1247 4.29862 12.1243 4.29892 12.124 4.29922L8.99886 6.72282L8.99872 6.72293L3.85441 10.7095C3.56382 10.9277 3.37342 11.2538 3.32672 11.6144C3.32664 11.6149 3.32657 11.6155 3.32649 11.6161L2.00447 21.4333L1.92816 22H2.5H23.5H24.0718L23.9955 21.4333L22.6735 11.6161C22.6734 11.6156 22.6734 11.615 22.6733 11.6145C22.6266 11.2539 22.4362 10.9277 22.1455 10.7095L19.2673 8.48071L19.2656 8.47937L18.7451 8.07271Z" fill="white" stroke="white"/>
<path d="M21.8427 11.1074L18.9595 8.8747L18.4373 8.4667L17.8243 7.9907L13.5676 4.69271C13.4054 4.56671 13.2055 4.49885 13 4.50005C12.7944 4.49796 12.5942 4.56592 12.4324 4.69271L9.30514 7.11804L4.1573 11.1074C3.97255 11.2449 3.85169 11.4515 3.82243 11.6797L2.5 21.5H23.5L22.1776 11.6797C22.1483 11.4515 22.0274 11.2449 21.8427 11.1074Z" fill="white"/>
<path fill-rule="evenodd" clip-rule="evenodd" d="M20.726 12.1398L18.0359 10.0567L17.5173 9.65144L17.5137 9.64867L13.0002 6.15064L5.27403 12.1396L4.21553 20H21.7845L20.726 12.1398ZM23.5 21.5H2.5L3.82243 11.6797C3.85169 11.4515 3.97255 11.2449 4.1573 11.1074L12.4324 4.69271C12.5942 4.56592 12.7944 4.49796 13 4.50005C13.2055 4.49885 13.4054 4.56671 13.5676 4.69271L17.8243 7.9907L18.4373 8.4667L18.9595 8.8747L21.8427 11.1074C22.0274 11.2449 22.1483 11.4515 22.1776 11.6797L23.5 21.5Z" fill="#EC6B4D"/>
<path fill-rule="evenodd" clip-rule="evenodd" d="M13.4419 10.9331C13.1979 10.689 12.8021 10.689 12.5581 10.9331L10.3914 13.0997C10.1473 13.3438 10.1473 13.7395 10.3914 13.9836C10.6355 14.2277 11.0312 14.2277 11.2753 13.9836L12.375 12.8839L12.375 17.875C12.375 18.2202 12.6548 18.5 13 18.5C13.3452 18.5 13.625 18.2202 13.625 17.875L13.625 12.8839L14.7247 13.9836C14.9688 14.2277 15.3645 14.2277 15.6086 13.9836C15.8527 13.7395 15.8527 13.3438 15.6086 13.0997L13.4419 10.9331Z" fill="#2C2C2C"/>
</svg>
