<svg width="26" height="26" viewBox="0 0 26 26" fill="none" xmlns="http://www.w3.org/2000/svg">
<path d="M13.4662 21.5V18.2491L15.4653 21.863L15.6794 22.25H16.1216H23.5H24.3578L24.2433 21.3999L22.9215 11.5843C22.9214 11.5834 22.9212 11.5825 22.9211 11.5816C22.8657 11.155 22.6406 10.7691 22.2971 10.5107L19.4212 8.28372L19.4186 8.28171L18.8991 7.87571L18.8973 7.87433L18.2843 7.39833L18.2837 7.39783L14.0277 4.10046C14.0276 4.10034 14.0274 4.10021 14.0272 4.10008C13.7339 3.87232 13.3728 3.74921 13.0016 3.75004C12.6286 3.7476 12.2655 3.87124 11.9714 4.10114C11.9708 4.10158 11.9703 4.10202 11.9697 4.10247L8.84572 6.52521L8.84551 6.52538L3.70272 10.5108C3.35938 10.7692 3.13431 11.1551 3.07887 11.5816C3.07876 11.5825 3.07864 11.5834 3.07852 11.5843L1.75671 21.3999L1.64223 22.25H2.5H12.7162H13.4662V21.5Z" fill="#EC6B4D" stroke="#2C2C2C" stroke-width="1.5"/>
<path d="M18.7451 8.07271L18.744 8.07179L18.131 7.59579L18.1306 7.59545L13.8743 4.29788C13.8743 4.29783 13.8742 4.29779 13.8742 4.29774C13.6245 4.10383 13.3171 3.99909 13.0011 4.00004C12.6838 3.99772 12.375 4.1028 12.1251 4.29833C12.1247 4.29862 12.1243 4.29892 12.124 4.29922L8.99886 6.72282L8.99872 6.72293L3.85441 10.7095C3.56382 10.9277 3.37342 11.2538 3.32672 11.6144C3.32664 11.6149 3.32657 11.6155 3.32649 11.6161L2.00447 21.4333L1.92816 22H2.5H12.7162H13.2162V21.5V17.2806L15.6841 21.742L15.8268 22H16.1216H23.5H24.0718L23.9955 21.4333L22.6735 11.6161C22.6734 11.6156 22.6734 11.615 22.6733 11.6145C22.6266 11.2539 22.4362 10.9277 22.1455 10.7095L19.2673 8.48071L19.2656 8.47937L18.7451 8.07271Z" fill="#EC6B4D" stroke="white"/>
</svg>
