<svg width="26" height="26" viewBox="0 0 26 26" fill="none" xmlns="http://www.w3.org/2000/svg">
<path d="M21.8427 11.1074L18.9595 8.8747L18.4373 8.4667L17.8243 7.9907L13.5676 4.69271C13.4054 4.56671 13.2055 4.49885 13 4.50005C12.7944 4.49796 12.5942 4.56592 12.4324 4.69271L9.30514 7.11804L4.1573 11.1074C3.97255 11.2449 3.85169 11.4515 3.82243 11.6797L2.5 21.5H12.7162V15.9977C12.7165 15.9532 12.7347 15.9107 12.7668 15.8798C12.7988 15.8489 12.8419 15.8321 12.8865 15.8333C12.9473 15.8335 13.0034 15.8659 13.0341 15.9183L16.1216 21.5H23.5L22.1776 11.6797C22.1483 11.4515 22.0274 11.2449 21.8427 11.1074Z" fill="#EC6B4D"/>
<path d="M18.7451 8.07271L18.744 8.07179L18.131 7.59579L18.1306 7.59545L13.8743 4.29788C13.8743 4.29784 13.8742 4.29781 13.8742 4.29777C13.6245 4.10384 13.3171 3.99909 13.0011 4.00004C12.6838 3.99772 12.375 4.10282 12.125 4.29837C12.1247 4.29865 12.1243 4.29893 12.124 4.29922L8.99886 6.72282L8.99872 6.72293L3.8544 10.7095C3.56382 10.9277 3.37342 11.2538 3.32672 11.6144C3.32664 11.6149 3.32657 11.6155 3.32649 11.6161L2.00447 21.4333L1.92816 22H2.5H12.7162H13.2162V21.5V17.2806L15.6841 21.742L15.8268 22H16.1216H23.5H24.0718L23.9955 21.4333L22.6735 11.6161C22.6734 11.6156 22.6734 11.615 22.6733 11.6145C22.6266 11.2539 22.4362 10.9277 22.1455 10.7095L19.2673 8.48071L19.2656 8.47937L18.7451 8.07271Z" fill="#EC6B4D" stroke="white"/>
</svg>
