<svg width="28" height="28" viewBox="0 0 28 28" fill="none" xmlns="http://www.w3.org/2000/svg">
<path d="M22.8427 12.1074L19.9595 9.8747L19.4373 9.4667L18.8243 8.9907L14.5676 5.69271C14.4054 5.56671 14.2055 5.49885 14 5.50005C13.7944 5.49796 13.5942 5.56592 13.4324 5.69271L10.3051 8.11804L5.1573 12.1074C4.97255 12.2449 4.85169 12.4515 4.82243 12.6797L3.5 22.5H13.7162V16.9977C13.7165 16.9532 13.7347 16.9107 13.7668 16.8798C13.7988 16.8489 13.8419 16.8321 13.8865 16.8333C13.9473 16.8335 14.0034 16.8659 14.0341 16.9183L17.1216 22.5H24.5L23.1776 12.6797C23.1483 12.4515 23.0274 12.2449 22.8427 12.1074Z" fill="#EC6B4D"/>
<path d="M19.7451 9.07271L19.744 9.07179L19.131 8.59579L19.1306 8.59545L14.8743 5.29788C14.8743 5.29783 14.8742 5.29779 14.8742 5.29774C14.6245 5.10383 14.3171 4.99909 14.0011 5.00004C13.6838 4.99772 13.375 5.1028 13.1251 5.29833C13.1247 5.29862 13.1243 5.29892 13.124 5.29922L9.99886 7.72282L9.99872 7.72293L4.85441 11.7095C4.56382 11.9277 4.37342 12.2538 4.32672 12.6144C4.32664 12.6149 4.32657 12.6155 4.32649 12.6161L3.00447 22.4333L2.92816 23H3.5H13.7162H14.2162V22.5V18.2806L16.6841 22.742L16.8268 23H17.1216H24.5H25.0718L24.9955 22.4333L23.6735 12.6161C23.6734 12.6156 23.6734 12.615 23.6733 12.6145C23.6266 12.2539 23.4362 11.9277 23.1455 11.7095L20.2673 9.48071L20.2656 9.47937L19.7451 9.07271Z" fill="#EC6B4D" stroke="white"/>
</svg>
