<svg width="28" height="28" viewBox="0 0 28 28" fill="none" xmlns="http://www.w3.org/2000/svg">
<path d="M14.7162 22.5V20.2175L16.2466 22.984L16.532 23.5H17.1216H24.5H25.6437L25.4911 22.3665L24.1694 12.5525C24.1693 12.5512 24.1691 12.5499 24.1689 12.5486C24.1047 12.0561 23.845 11.6107 23.4489 11.312L20.5752 9.08672L20.5717 9.08404L20.053 8.67872L20.0506 8.67688L19.4377 8.20088L19.4368 8.2002L15.1811 4.90304C15.1808 4.90282 15.1805 4.90261 15.1803 4.90239C15.1802 4.90233 15.1801 4.90227 15.18 4.90221C14.843 4.64074 14.4284 4.49933 14.0022 4.50003C13.5734 4.49748 13.1561 4.6396 12.818 4.90373C12.8172 4.90439 12.8163 4.90506 12.8155 4.90572L9.69259 7.32761L9.6923 7.32783L4.5509 11.3122C4.15489 11.6108 3.8952 12.0563 3.83104 12.5488C3.83087 12.55 3.83071 12.5513 3.83055 12.5525L2.50895 22.3665L2.35631 23.5H3.5H13.7162H14.7162V22.5Z" fill="#EC6B4D" stroke="#2C2C2C" stroke-width="2"/>
<path d="M19.7451 9.07271L19.744 9.07179L19.131 8.59579L19.1306 8.59545L14.8743 5.29788C14.8743 5.29783 14.8742 5.29779 14.8742 5.29774C14.6245 5.10383 14.3171 4.99909 14.0011 5.00004C13.6838 4.99772 13.375 5.1028 13.1251 5.29833C13.1247 5.29862 13.1243 5.29892 13.124 5.29922L9.99886 7.72282L9.99872 7.72293L4.85441 11.7095C4.56382 11.9277 4.37342 12.2538 4.32672 12.6144C4.32664 12.6149 4.32657 12.6155 4.32649 12.6161L3.00447 22.4333L2.92816 23H3.5H13.7162H14.2162V22.5V18.2806L16.6841 22.742L16.8268 23H17.1216H24.5H25.0718L24.9955 22.4333L23.6735 12.6161C23.6734 12.6156 23.6734 12.615 23.6733 12.6145C23.6266 12.2539 23.4362 11.9277 23.1455 11.7095L20.2673 9.48071L20.2656 9.47937L19.7451 9.07271Z" fill="#EC6B4D" stroke="white"/>
</svg>
