<?xml version="1.0" encoding="UTF-8" standalone="no"?>
<svg
   width="24.431129"
   height="19.999994"
   viewBox="0 0 24.431129 19.999994"
   fill="none"
   version="1.1"
   id="svg4600"
   sodipodi:docname="icon reception site.svg"
   xml:space="preserve"
   inkscape:export-filename="site.svg"
   inkscape:export-xdpi="96"
   inkscape:export-ydpi="96"
   xmlns:inkscape="http://www.inkscape.org/namespaces/inkscape"
   xmlns:sodipodi="http://sodipodi.sourceforge.net/DTD/sodipodi-0.dtd"
   xmlns="http://www.w3.org/2000/svg"
   xmlns:svg="http://www.w3.org/2000/svg"><defs
     id="defs4604" /><sodipodi:namedview
     id="namedview4602"
     pagecolor="#505050"
     bordercolor="#eeeeee"
     borderopacity="1"
     inkscape:showpageshadow="0"
     inkscape:pageopacity="0"
     inkscape:pagecheckerboard="0"
     inkscape:deskcolor="#505050"
     showgrid="false" /><path
     d="m 23.45884,18.399895 -1.3218,-9.8155995 c -10e-5,-9e-4 -3e-4,-0.0018 -4e-4,-0.0027 -0.0554,-0.4266 -0.2805,-0.8125 -0.624,-1.0709 l -2.8759,-2.22698 -0.0026,-0.00201 -0.5195,-0.406 -0.0018,-0.00138 -0.613,-0.476 -6e-4,-5e-4 -4.256,-3.29737 c -10e-5,-1.2e-4 -3e-4,-2.5e-4 -5e-4,-3.8e-4 -0.2933,-0.22776003 -0.6544,-0.35087003 -1.0256,-0.35004003 -0.373,-0.00244 -0.7361,0.1212 -1.0302,0.35110003 -6e-4,4.4e-4 -0.0011,8.8e-4 -0.0017,0.00133 l -3.12398,2.42274 -2.1e-4,1.7e-4 -5.14279,3.98542 c -0.34334,0.2584 -0.56841,0.6443 -0.62385,1.0708 -1.1e-4,9e-4 -2.3e-4,0.0018 -3.5e-4,0.0027 l -1.32181001,9.8155995 -0.11448,0.8501 H 1.71554 h 21 0.8578 z"
     fill="#ffffff"
     stroke="#2c2c2c"
     stroke-width="1.5"
     id="path4592" /><path
     d="m 21.05824,8.1073955 -2.8832,-2.2327 -0.5222,-0.408 -0.613,-0.476 -4.2567,-3.29799 c -0.1622,-0.126 -0.3621,-0.19386 -0.5676,-0.19266 -0.2056,-0.00209 -0.4058,0.06587 -0.5676,0.19266 l -3.12726,2.42533 -5.14784,3.98936 c -0.18475,0.1375 -0.30561,0.3441 -0.33487,0.5723 L 1.71554,18.499995 h 21 l -1.3224,-9.8202995 c -0.0293,-0.2282 -0.1502,-0.4348 -0.3349,-0.5723 z"
     fill="#ffffff"
     id="path4594" /><path
     fill-rule="evenodd"
     clip-rule="evenodd"
     d="m 19.94154,9.1397955 -2.6901,-2.0831 -0.5186,-0.40526 -0.0036,-0.00277 -4.5135,-3.49803 -7.72617,5.98896 -1.0585,7.8603995 h 17.56897 z m 2.774,9.3601995 h -21 L 3.03797,8.6796955 c 0.02926,-0.2282 0.15012,-0.4348 0.33487,-0.5723 l 8.2751,-6.41469 c 0.1618,-0.12679 0.362,-0.19475 0.5676,-0.19266 0.2055,-0.0012 0.4054,0.06666 0.5676,0.19266 l 4.2567,3.29799 0.613,0.476 0.5222,0.408 2.8832,2.2327 c 0.1847,0.1375 0.3056,0.3441 0.3349,0.5723 z"
     fill="#ec6b4d"
     id="path4596" /><g
     style="fill:none"
     id="g5111"
     transform="translate(6.1393638,6.105266)"><path
       fill-rule="evenodd"
       clip-rule="evenodd"
       d="m 0.922424,3.73924 c 0.0305,0.07372 0.075711,0.14278 0.135636,0.2027 l 2,2 c 0.24408,0.24408 0.6398,0.24408 0.88388,0 0.24408,-0.24408 0.24408,-0.6398 0,-0.88388 L 3.00888,4.125 H 8.5 C 8.84518,4.125 9.125,3.84518 9.125,3.5 9.125,3.15482 8.84518,2.875 8.5,2.875 H 3.00888 L 3.94194,1.94194 c 0.24408,-0.24408 0.24408,-0.6398 0,-0.88388 -0.24408,-0.244079 -0.6398,-0.244079 -0.88388,0 l -1.9995,1.9995 -5e-4,5e-4 M 1.054,3.06216 C 0.943283,3.17492 0.875,3.32949 0.875,3.5 c 0,0.08474 0.016866,0.16555 0.047424,0.23924 m 8.019516,6.2027 1.99996,-2 c 0.2441,-0.24408 0.2441,-0.6398 0,-0.88388 l -1.99996,-2 c -0.24408,-0.24408 -0.6398,-0.24408 -0.88388,0 -0.24408,0.24408 -0.24408,0.6398 0,0.88388 L 8.99112,6.875 H 3.5 c -0.34518,0 -0.625,0.27982 -0.625,0.625 0,0.34518 0.27982,0.625 0.625,0.625 H 8.99112 L 8.05806,9.05806 c -0.24408,0.24408 -0.24408,0.6398 0,0.88388 0.24408,0.24406 0.6398,0.24406 0.88388,0 z"
       fill="#2c2c2c"
       id="path5102" /></g></svg>
