<svg width="26" height="26" viewBox="0 0 26 26" fill="none" xmlns="http://www.w3.org/2000/svg">
<path d="M18.7451 8.07271L18.744 8.07179L18.131 7.59579L18.1306 7.59545L13.8743 4.29788C13.8743 4.29783 13.8742 4.29779 13.8742 4.29774C13.6245 4.10383 13.3171 3.99909 13.0011 4.00004C12.6838 3.99772 12.375 4.1028 12.1251 4.29833C12.1247 4.29862 12.1243 4.29892 12.124 4.29922L8.99886 6.72282L8.99872 6.72293L3.85441 10.7095C3.56382 10.9277 3.37342 11.2538 3.32672 11.6144C3.32664 11.6149 3.32657 11.6155 3.32649 11.6161L2.00447 21.4333L1.92816 22H2.5H23.5H24.0718L23.9955 21.4333L22.6735 11.6161C22.6734 11.6156 22.6734 11.615 22.6733 11.6145C22.6266 11.2539 22.4362 10.9277 22.1455 10.7095L19.2673 8.48071L19.2656 8.47937L18.7451 8.07271Z" fill="white" stroke="white"/>
<path d="M21.3835 11.7004L21.3891 11.7047L21.3948 11.7089C21.4165 11.7251 21.4303 11.749 21.4337 11.7751L21.4336 11.7751L21.4343 11.7798L22.6422 20.75H3.35777L4.56572 11.7798L4.56574 11.7798L4.56634 11.7751C4.56969 11.749 4.58354 11.7251 4.60518 11.7089L4.61098 11.7046L4.61671 11.7002L9.76455 7.71087L9.76476 7.7107L12.8921 5.28537L12.8921 5.28538L12.8952 5.28296C12.9227 5.26135 12.957 5.24965 12.9924 5.25001L12.9924 5.2501L13.0044 5.25003C13.0418 5.24982 13.0781 5.2622 13.1074 5.28497L13.1082 5.28559L17.3643 8.58307L17.365 8.58358L17.9755 9.05769L17.9773 9.05907L18.4977 9.46569L18.4977 9.46569L18.5003 9.4677L21.3835 11.7004Z" fill="white" stroke="#EC6B4D" stroke-width="1.5"/>
<path d="M15.5 14.5L17.5 16.5L15.5 18.5" stroke="#2C2C2C" stroke-width="1.25" stroke-linecap="round" stroke-linejoin="round"/>
<path d="M10.5 14.5L8.5 12.5L10.5 10.5" stroke="#2C2C2C" stroke-width="1.25" stroke-linecap="round" stroke-linejoin="round"/>
<path d="M16.5 16.5L10.5 16.5" stroke="#2C2C2C" stroke-width="1.25" stroke-linecap="round" stroke-linejoin="round"/>
<path d="M8.5 12.5L15.5 12.5" stroke="#2C2C2C" stroke-width="1.25" stroke-linecap="round" stroke-linejoin="round"/>
</svg>
