<svg width="28" height="28" viewBox="0 0 28 28" fill="none" xmlns="http://www.w3.org/2000/svg">
<g clip-path="url(#clip0_83_1355)">
<path d="M25.4911 22.3665L24.1694 12.5525C24.1693 12.5512 24.1691 12.5499 24.1689 12.5486C24.1047 12.0561 23.845 11.6107 23.4489 11.312L20.5752 9.08672L20.5717 9.08404L20.053 8.67872L20.0506 8.67688L19.4377 8.20088L19.4368 8.2002L15.1811 4.90304C15.1808 4.90282 15.1805 4.90261 15.1803 4.90239C15.1802 4.90233 15.1801 4.90227 15.18 4.90221C14.843 4.64074 14.4284 4.49933 14.0022 4.50003C13.5734 4.49748 13.1561 4.6396 12.818 4.90373C12.8172 4.90439 12.8163 4.90506 12.8155 4.90572L9.69259 7.32761L9.6923 7.32783L4.5509 11.3122C4.15489 11.6108 3.8952 12.0563 3.83104 12.5488C3.83087 12.55 3.83071 12.5513 3.83055 12.5525L2.50895 22.3665L2.35631 23.5H3.5H24.5H25.6437L25.4911 22.3665Z" fill="white" stroke="#2C2C2C" stroke-width="2"/>
<path d="M22.8427 12.1074L19.9595 9.8747L19.4373 9.4667L18.8243 8.9907L14.5676 5.69271C14.4054 5.56671 14.2055 5.49885 14 5.50005C13.7944 5.49796 13.5942 5.56592 13.4324 5.69271L10.3051 8.11804L5.1573 12.1074C4.97255 12.2449 4.85169 12.4515 4.82243 12.6797L3.5 22.5H24.5L23.1776 12.6797C23.1483 12.4515 23.0274 12.2449 22.8427 12.1074Z" fill="white"/>
<path fill-rule="evenodd" clip-rule="evenodd" d="M21.726 13.1398L19.0359 11.0567L18.5173 10.6514L18.5137 10.6487L14.0002 7.15064L6.27403 13.1396L5.21553 21H22.7845L21.726 13.1398ZM24.5 22.5H3.5L4.82243 12.6797C4.85169 12.4515 4.97255 12.2449 5.1573 12.1074L13.4324 5.69271C13.5942 5.56592 13.7944 5.49796 14 5.50005C14.2055 5.49885 14.4054 5.56671 14.5676 5.69271L18.8243 8.9907L19.4373 9.4667L19.9595 9.8747L22.8427 12.1074C23.0274 12.2449 23.1483 12.4515 23.1776 12.6797L24.5 22.5Z" fill="#EC6B4D"/>
<path fill-rule="evenodd" clip-rule="evenodd" d="M14.4419 11.8081C14.1979 11.564 13.8021 11.564 13.5581 11.8081L11.2247 14.1414C10.9807 14.3855 10.9807 14.7812 11.2247 15.0253C11.4688 15.2694 11.8645 15.2694 12.1086 15.0253L13.375 13.7589L13.375 19.25C13.375 19.5952 13.6548 19.875 14 19.875C14.3452 19.875 14.625 19.5952 14.625 19.25L14.625 13.7589L15.8914 15.0253C16.1355 15.2694 16.5312 15.2694 16.7753 15.0253C17.0194 14.7812 17.0194 14.3855 16.7753 14.1414L14.4419 11.8081Z" fill="#2C2C2C"/>
<path d="M19.7451 9.07271L19.744 9.07179L19.131 8.59579L19.1306 8.59545L14.8743 5.29788C14.8743 5.29783 14.8742 5.29779 14.8742 5.29774C14.6245 5.10383 14.3171 4.99909 14.0011 5.00004C13.6838 4.99772 13.375 5.1028 13.1251 5.29833C13.1247 5.29862 13.1243 5.29892 13.124 5.29922L9.99886 7.72282L9.99872 7.72293L4.85441 11.7095C4.56382 11.9277 4.37342 12.2538 4.32672 12.6144C4.32664 12.6149 4.32657 12.6155 4.32649 12.6161L3.00447 22.4333L2.92816 23H3.5H24.5H25.0718L24.9955 22.4333L23.6735 12.6161C23.6734 12.6156 23.6734 12.615 23.6733 12.6145C23.6266 12.2539 23.4362 11.9277 23.1455 11.7095L20.2673 9.48071L20.2656 9.47937L19.7451 9.07271Z" fill="white" stroke="white"/>
<path d="M22.8427 12.1074L19.9595 9.8747L19.4373 9.4667L18.8243 8.9907L14.5676 5.69271C14.4054 5.56671 14.2055 5.49885 14 5.50005C13.7944 5.49796 13.5942 5.56592 13.4324 5.69271L10.3051 8.11804L5.1573 12.1074C4.97255 12.2449 4.85169 12.4515 4.82243 12.6797L3.5 22.5H24.5L23.1776 12.6797C23.1483 12.4515 23.0274 12.2449 22.8427 12.1074Z" fill="white"/>
<path fill-rule="evenodd" clip-rule="evenodd" d="M21.726 13.1398L19.0359 11.0567L18.5173 10.6514L18.5137 10.6487L14.0002 7.15064L6.27403 13.1396L5.21553 21H22.7845L21.726 13.1398ZM24.5 22.5H3.5L4.82243 12.6797C4.85169 12.4515 4.97255 12.2449 5.1573 12.1074L13.4324 5.69271C13.5942 5.56592 13.7944 5.49796 14 5.50005C14.2055 5.49885 14.4054 5.56671 14.5676 5.69271L18.8243 8.9907L19.4373 9.4667L19.9595 9.8747L22.8427 12.1074C23.0274 12.2449 23.1483 12.4515 23.1776 12.6797L24.5 22.5Z" fill="#EC6B4D"/>
<path fill-rule="evenodd" clip-rule="evenodd" d="M8.57626 13.7008C8.60676 13.7745 8.65197 13.8436 8.7119 13.9035L10.8657 16.0573C11.1098 16.3014 11.5055 16.3014 11.7496 16.0573C11.9937 15.8133 11.9937 15.4175 11.7496 15.1734L10.6627 14.0865L16.6923 14.0865C17.0375 14.0865 17.3173 13.8067 17.3173 13.4615C17.3173 13.1164 17.0375 12.8365 16.6923 12.8365L10.6627 12.8365L11.7496 11.7496C11.9937 11.5056 11.9937 11.1098 11.7496 10.8658C11.5055 10.6217 11.1098 10.6217 10.8657 10.8658L8.71252 13.019L8.7119 13.0196C8.52774 13.2038 8.48253 13.4742 8.57626 13.7008ZM17.1342 20.365L19.2881 18.2112C19.5322 17.9671 19.5322 17.5714 19.2881 17.3273L17.1342 15.1734C16.8902 14.9294 16.4944 14.9294 16.2504 15.1734C16.0063 15.4175 16.0063 15.8132 16.2504 16.0573L17.3373 17.1442L11.3077 17.1442C10.9625 17.1442 10.6827 17.4241 10.6827 17.7692C10.6827 18.1144 10.9625 18.3942 11.3077 18.3942L17.3373 18.3942L16.2504 19.4811C16.0063 19.7252 16.0063 20.1209 16.2504 20.365C16.4944 20.6091 16.8902 20.6091 17.1342 20.365Z" fill="#2C2C2C"/>
</g>
<defs>
<clipPath id="clip0_83_1355">
<rect width="28" height="28" fill="white"/>
</clipPath>
</defs>
</svg>
