<svg width="28" height="28" viewBox="0 0 28 28" fill="none" xmlns="http://www.w3.org/2000/svg">
<path d="M19.7451 9.07271L19.744 9.07179L19.131 8.59579L19.1306 8.59545L14.8743 5.29788C14.8743 5.29783 14.8742 5.29779 14.8742 5.29774C14.6245 5.10383 14.3171 4.99909 14.0011 5.00004C13.6838 4.99772 13.375 5.1028 13.1251 5.29833C13.1247 5.29862 13.1243 5.29892 13.124 5.29922L9.99886 7.72282L9.99872 7.72293L4.85441 11.7095C4.56382 11.9277 4.37342 12.2538 4.32672 12.6144C4.32664 12.6149 4.32657 12.6155 4.32649 12.6161L3.00447 22.4333L2.92816 23H3.5H24.5H25.0718L24.9955 22.4333L23.6735 12.6161C23.6734 12.6156 23.6734 12.615 23.6733 12.6145C23.6266 12.2539 23.4362 11.9277 23.1455 11.7095L20.2673 9.48071L20.2656 9.47937L19.7451 9.07271Z" fill="white" stroke="white"/>
<path d="M22.3835 12.7004L22.3891 12.7047L22.3948 12.7089C22.4165 12.7251 22.4303 12.749 22.4337 12.7751L22.4336 12.7751L22.4343 12.7798L23.6422 21.75H4.35777L5.56572 12.7798L5.56574 12.7798L5.56634 12.7751C5.56969 12.749 5.58354 12.7251 5.60518 12.7089L5.61098 12.7046L5.61671 12.7002L10.7645 8.71087L10.7648 8.7107L13.8921 6.28537L13.8921 6.28538L13.8952 6.28296C13.9227 6.26135 13.957 6.24965 13.9924 6.25001L13.9924 6.2501L14.0044 6.25003C14.0418 6.24982 14.0781 6.2622 14.1074 6.28497L14.1082 6.28559L18.3643 9.58307L18.365 9.58358L18.9755 10.0577L18.9773 10.0591L19.4977 10.4657L19.4977 10.4657L19.5003 10.4677L22.3835 12.7004Z" fill="white" stroke="#EC6B4D" stroke-width="1.5"/>
<path d="M16.5 15.5L18.5 17.5L16.5 19.5" stroke="#2C2C2C" stroke-width="1.25" stroke-linecap="round" stroke-linejoin="round"/>
<path d="M11.5 15.5L9.5 13.5L11.5 11.5" stroke="#2C2C2C" stroke-width="1.25" stroke-linecap="round" stroke-linejoin="round"/>
<path d="M17.5 17.5L11.5 17.5" stroke="#2C2C2C" stroke-width="1.25" stroke-linecap="round" stroke-linejoin="round"/>
<path d="M9.5 13.5L16.5 13.5" stroke="#2C2C2C" stroke-width="1.25" stroke-linecap="round" stroke-linejoin="round"/>
</svg>
